<svg width="399" height="602" viewBox="0 0 399 602" xmlns="http://www.w3.org/2000/svg" xmlns:xlink="http://www.w3.org/1999/xlink"><title>8EE05BE3-9588-45D4-8044-AF37E44BEEFB</title><defs><path d="M133 71.002c0-1.106.899-2.002 1.999-2.002H249c1.104 0 1.999.89 1.999 2.002V101H133V71.002z" id="b"/><filter x="-50%" y="-50%" width="200%" height="200%" filterUnits="objectBoundingBox" id="a"><feOffset dy="1" in="SourceAlpha" result="shadowOffsetOuter1"/><feColorMatrix values="0 0 0 0 0.941176471 0 0 0 0 0.298039216 0 0 0 0 0.243137255 0 0 0 1 0" in="shadowOffsetOuter1"/></filter><path d="M185 314.002c0-1.106.89-2.002 2.002-2.002h27.996c1.106 0 2.002.89 2.002 2.002V344h-32v-29.998z" id="d"/><filter x="-50%" y="-50%" width="200%" height="200%" filterUnits="objectBoundingBox" id="c"><feOffset dy="1" in="SourceAlpha" result="shadowOffsetOuter1"/><feColorMatrix values="0 0 0 0 0.941176471 0 0 0 0 0.298039216 0 0 0 0 0.243137255 0 0 0 1 0" in="shadowOffsetOuter1"/></filter><path d="M306 412.002c0-1.106.897-2.002 1.997-2.002h81.006c1.103 0 1.997.89 1.997 2.002V442h-85v-29.998z" id="f"/><filter x="-50%" y="-50%" width="200%" height="200%" filterUnits="objectBoundingBox" id="e"><feOffset dy="1" in="SourceAlpha" result="shadowOffsetOuter1"/><feColorMatrix values="0 0 0 0 0.941176471 0 0 0 0 0.298039216 0 0 0 0 0.243137255 0 0 0 1 0" in="shadowOffsetOuter1"/></filter></defs><g fill="none" fill-rule="evenodd"><path fill="#F0F0F0" d="M0 0h399v602H0z"/><rect fill="#333" x="9" y="45" width="203" height="8" rx="2"/><rect fill="#333" x="215" y="45" width="176" height="8" rx="2"/><rect fill="#39B54A" x="9" y="94" width="121" height="8" rx="2"/><rect fill="#333" x="254" y="94" width="137" height="8" rx="2"/><rect fill="#333" x="9" y="143" width="382" height="8" rx="2"/><rect fill="#333" x="9" y="191" width="149" height="8" rx="2"/><rect fill="#333" x="161" y="191" width="230" height="8" rx="2"/><rect fill="#333" x="9" y="239" width="203" height="8" rx="2"/><rect fill="#39B54A" x="215" y="239" width="176" height="8" rx="2"/><rect fill="#333" x="9" y="288" width="266" height="8" rx="2"/><rect fill="#333" x="278" y="288" width="113" height="8" rx="2"/><rect fill="#333" x="9" y="337" width="173" height="8" rx="2"/><rect fill="#333" x="220" y="337" width="171" height="8" rx="2"/><rect fill="#333" x="9" y="386" width="203" height="8" rx="2"/><rect fill="#333" x="215" y="386" width="176" height="8" rx="2"/><rect fill="#39B54A" x="149" y="435" width="63" height="8" rx="2"/><rect fill="#333" x="9" y="435" width="137" height="8" rx="2"/><rect fill="#333" x="215" y="435" width="88" height="8" rx="2"/><rect fill="#333" x="9" y="484" width="382" height="8" rx="2"/><rect fill="#333" x="97" y="533" width="295" height="8" rx="2"/><rect fill="#333" x="9" y="533" width="85" height="8" rx="2"/><rect fill="#333" x="168" y="582" width="224" height="8" rx="2"/><rect fill="#333" x="9" y="582" width="68" height="8" rx="2"/><rect fill="#39B54A" x="151" y="582" width="12" height="8" rx="2"/><use fill="#000" filter="url(#a)" xlink:href="#b"/><use fill="#FEF6F5" xlink:href="#b"/><path d="M227 77h16v16h-16z"/><path d="M227.667 91h14.666L235 78.333 227.667 91zm8-2h-1.334v-1.333h1.334V89zm0-2.667h-1.334v-2.666h1.334v2.666z" fill="#F04C3E"/><rect fill="#333" x="80" y="582" width="68" height="8" rx="2"/><use fill="#000" filter="url(#c)" xlink:href="#d"/><use fill="#FEF6F5" xlink:href="#d"/><g><path d="M193 320h16v16h-16z"/><path d="M193.667 334h14.666L201 321.333 193.667 334zm8-2h-1.334v-1.333h1.334V332zm0-2.667h-1.334v-2.666h1.334v2.666z" fill="#F04C3E"/></g><g><use fill="#000" filter="url(#e)" xlink:href="#f"/><use fill="#FEF6F5" xlink:href="#f"/></g><g><path d="M367 418h16v16h-16z"/><path d="M367.667 432h14.666L375 419.333 367.667 432zm8-2h-1.334v-1.333h1.334V430zm0-2.667h-1.334v-2.666h1.334v2.666z" fill="#F04C3E"/></g></g></svg>