<?xml version="1.0" encoding="UTF-8"?>
<svg width="20px" height="20px" viewBox="0 0 20 20" version="1.1" xmlns="http://www.w3.org/2000/svg" xmlns:xlink="http://www.w3.org/1999/xlink">
    <!-- Generator: sketchtool 42 (36781) - http://www.bohemiancoding.com/sketch -->
    <title>3A224BBF-B741-45AE-B5B7-B35A2C60BBA9</title>
    <desc>Created with sketchtool.</desc>
    <defs></defs>
    <g id="Upload-Document" stroke="none" stroke-width="1" fill="none" fill-rule="evenodd">
        <g id="Employee-Dashboard---After-upload" transform="translate(-252.000000, -496.000000)">
            <g id="Immigration" transform="translate(226.000000, 381.000000)">
                <g id="Green-check" transform="translate(24.000000, 113.000000)">
                    <polygon id="Shape" points="0 0 24 0 24 24 0 24"></polygon>
                    <path d="M12,2 C6.48,2 2,6.48 2,12 C2,17.52 6.48,22 12,22 C17.52,22 22,17.52 22,12 C22,6.48 17.52,2 12,2 L12,2 Z M10,17 L5,12 L6.41,10.59 L10,14.17 L17.59,6.58 L19,8 L10,17 L10,17 Z" id="Shape" fill="#4CAF50"></path>
                </g>
            </g>
        </g>
    </g>
</svg>