<?xml version="1.0" encoding="UTF-8" standalone="no"?>
<svg width="16px" height="16px" viewBox="0 0 16 16" version="1.1" xmlns="http://www.w3.org/2000/svg" xmlns:xlink="http://www.w3.org/1999/xlink">
    <!-- Generator: sketchtool 41.2 (35397) - http://www.bohemiancoding.com/sketch -->
    <title>8CD99A3C-9A38-4F87-A839-03A081B219CB</title>
    <desc>Created with sketchtool.</desc>
    <defs></defs>
    <g id="Upload-Document" stroke="none" stroke-width="1" fill="none" fill-rule="evenodd">
        <g id="Employee-Dashboard---After-upload" transform="translate(-748.000000, -256.000000)">
            <g id="ic_check_box" transform="translate(744.000000, 252.000000)">
                <g id="Icon-24px">
                    <polygon id="Bounds" points="0 0 24 0 24 24 0 24"></polygon>
                    <path d="M18.2222222,4 L5.77777778,4 C4.79111111,4 4,4.8 4,5.77777778 L4,18.2222222 C4,19.2 4.79111111,20 5.77777778,20 L18.2222222,20 C19.2088889,20 20,19.2 20,18.2222222 L20,5.77777778 C20,4.8 19.2088889,4 18.2222222,4 L18.2222222,4 Z M10,17 L5,12 L6.41,10.59 L10,14.17 L17.59,6.58 L19,8 L10,17 L10,17 Z" id="Shape" fill="#B2B2B2"></path>
                </g>
            </g>
        </g>
    </g>
</svg>