<svg width="36" height="38" viewBox="0 0 36 38" xmlns="http://www.w3.org/2000/svg" xmlns:xlink="http://www.w3.org/1999/xlink"><title>D72A22E2-EC13-49A3-8E10-F8D88EC22788</title><defs><linearGradient x1="50%" y1="0%" x2="50%" y2="100%" id="c"><stop stop-color="#FFF" stop-opacity=".8" offset="0%"/><stop stop-color="#FFF" stop-opacity=".4" offset="5%"/><stop stop-color="#FFF" stop-opacity="0" offset="20%"/><stop stop-color="#FFF" stop-opacity="0" offset="100%"/></linearGradient><linearGradient x1="50%" y1="0%" x2="50%" y2="100%" id="e"><stop stop-opacity="0" offset="0%"/><stop stop-opacity="0" offset="80%"/><stop stop-opacity=".02" offset="95.026%"/><stop stop-opacity=".04" offset="100%"/></linearGradient><path d="M0 2.002C0 .896.89 0 2.002 0h27.996C31.104 0 32 .89 32 2.002v27.996C32 31.104 31.11 32 29.998 32H2.002A1.997 1.997 0 0 1 0 29.998V2.002z" id="a"/><filter x="-50%" y="-50%" width="200%" height="200%" filterUnits="objectBoundingBox" id="b"><feOffset dy="2" in="SourceAlpha" result="shadowOffsetOuter1"/><feGaussianBlur stdDeviation="1" in="shadowOffsetOuter1" result="shadowBlurOuter1"/><feComposite in="shadowBlurOuter1" in2="SourceAlpha" operator="out" result="shadowBlurOuter1"/><feColorMatrix values="0 0 0 0 0 0 0 0 0 0 0 0 0 0 0 0 0 0 0.24 0" in="shadowBlurOuter1" result="shadowMatrixOuter1"/><feOffset in="SourceAlpha" result="shadowOffsetOuter2"/><feGaussianBlur stdDeviation="1" in="shadowOffsetOuter2" result="shadowBlurOuter2"/><feComposite in="shadowBlurOuter2" in2="SourceAlpha" operator="out" result="shadowBlurOuter2"/><feColorMatrix values="0 0 0 0 0 0 0 0 0 0 0 0 0 0 0 0 0 0 0.12 0" in="shadowBlurOuter2" result="shadowMatrixOuter2"/><feMerge><feMergeNode in="shadowMatrixOuter1"/><feMergeNode in="shadowMatrixOuter2"/></feMerge></filter><mask id="d" x="0" y="0" width="32" height="32" fill="#fff"><use xlink:href="#a"/></mask><mask id="f" x="0" y="0" width="32" height="32" fill="#fff"><use xlink:href="#a"/></mask></defs><g fill="none" fill-rule="evenodd"><g transform="matrix(-1 0 0 1 34 2)"><use fill="#000" filter="url(#b)" xlink:href="#a"/><use stroke="url(#c)" mask="url(#d)" stroke-width="2" fill="#F0F0F0" xlink:href="#a"/><use stroke="url(#e)" mask="url(#f)" stroke-width="2" xlink:href="#a"/></g><path fill="#646464" d="M14.41 13.1l4.945 5.163-4.945 5.162 1.522 1.585 6.478-6.747-6.478-6.748z"/></g></svg>