<?xml version="1.0" encoding="UTF-8" standalone="no"?>
<svg width="20px" height="21px" viewBox="0 0 20 21" version="1.1" xmlns="http://www.w3.org/2000/svg" xmlns:xlink="http://www.w3.org/1999/xlink">
    <!-- Generator: sketchtool 41.2 (35397) - http://www.bohemiancoding.com/sketch -->
    <title>E41BBF7F-6731-4DBB-BCB0-2358C98588F2</title>
    <desc>Created with sketchtool.</desc>
    <defs></defs>
    <g id="Knowledge-Centre" stroke="none" stroke-width="1" fill="none" fill-rule="evenodd">
        <g transform="translate(-22.000000, -393.000000)" id="LHM">
            <g>
                <g id="ic_library_books" transform="translate(20.000000, 391.450000)">
                    <g id="Icon-24px">
                        <polygon id="Shape" points="0 0 24 0 24 24 0 24"></polygon>
                        <path d="M4,6 L2,6 L2,20 C2,21.1 2.9,22 4,22 L18,22 L18,20 L4,20 L4,6 L4,6 Z M20,2 L8,2 C6.9,2 6,2.9 6,4 L6,16 C6,17.1 6.9,18 8,18 L20,18 C21.1,18 22,17.1 22,16 L22,4 C22,2.9 21.1,2 20,2 L20,2 Z M19,11 L9,11 L9,9 L19,9 L19,11 L19,11 Z M15,15 L9,15 L9,13 L15,13 L15,15 L15,15 Z M19,7 L9,7 L9,5 L19,5 L19,7 L19,7 Z" id="Shape" fill="#C0C0C0"></path>
                    </g>
                </g>
            </g>
        </g>
    </g>
</svg>