<?xml version="1.0" encoding="UTF-8" standalone="no"?>
<svg width="18px" height="21px" viewBox="0 0 18 21" version="1.1" xmlns="http://www.w3.org/2000/svg" xmlns:xlink="http://www.w3.org/1999/xlink">
    <!-- Generator: sketchtool 41.2 (35397) - http://www.bohemiancoding.com/sketch -->
    <title>5E834D69-F046-4B64-9886-64B8E5FDF4DB</title>
    <desc>Created with sketchtool.</desc>
    <defs>
        <path d="M12,11.55 C9.64,9.35 6.48,8 3,8 L3,19 C6.48,19 9.64,20.35 12,22.55 C14.36,20.36 17.52,19 21,19 L21,8 C17.52,8 14.36,9.35 12,11.55 L12,11.55 Z M12,8 C13.66,8 15,6.66 15,5 C15,3.34 13.66,2 12,2 C10.34,2 9,3.34 9,5 C9,6.66 10.34,8 12,8 L12,8 Z" id="path-1"></path>
    </defs>
    <g id="Employee-Dashboard" stroke="none" stroke-width="1" fill="none" fill-rule="evenodd">
        <g id="Task-Management" transform="translate(-23.000000, -379.000000)">
            <g id="Side-bar-navigation-all-active">
                <g id="ic_local_library_on" transform="translate(20.000000, 377.166667)">
                    <g id="Icon-24px">
                        <polygon id="Shape" points="0 0 24 0 24 24 0 24"></polygon>
                        <g id="Shape">
                            <use fill="#C0C0C0" xlink:href="#path-1"></use>
                            <use fill="#FFE600" xlink:href="#path-1"></use>
                        </g>
                    </g>
                </g>
            </g>
        </g>
    </g>
</svg>