<?xml version="1.0" encoding="UTF-8"?>
<svg width="36px" height="36px" viewBox="0 0 36 36" version="1.1" xmlns="http://www.w3.org/2000/svg" xmlns:xlink="http://www.w3.org/1999/xlink">
    <!-- Generator: sketchtool 42 (36781) - http://www.bohemiancoding.com/sketch -->
    <title>6A38FC68-4C9D-4A50-B10C-1C5BD25E73F9</title>
    <desc>Created with sketchtool.</desc>
    <defs></defs>
    <g id="Upload-Document" stroke="none" stroke-width="1" fill="none" fill-rule="evenodd">
        <g id="Employee-Dashboard---Sucess" transform="translate(-494.000000, -348.000000)">
            <g id="Sucess" transform="translate(406.000000, 345.000000)">
                <g id="Icon-24px" transform="translate(85.000000, 0.000000)">
                    <polygon id="Shape" points="0 0 42 0 42 42 0 42"></polygon>
                    <path d="M21,3.5 C11.34,3.5 3.5,11.34 3.5,21 C3.5,30.66 11.34,38.5 21,38.5 C30.66,38.5 38.5,30.66 38.5,21 C38.5,11.34 30.66,3.5 21,3.5 L21,3.5 Z M17.5,29.75 L8.75,21 L11.2175,18.5325 L17.5,24.7975 L30.7825,11.515 L33.25,14 L17.5,29.75 L17.5,29.75 Z" id="Shape" fill="#4CAF50"></path>
                </g>
            </g>
        </g>
    </g>
</svg>