<svg width="456" height="280" viewBox="0 0 456 280" xmlns="http://www.w3.org/2000/svg" xmlns:xlink="http://www.w3.org/1999/xlink"><title>C56C2796-674E-4582-8B1B-FF7790BE0B33</title><defs><linearGradient x1="50%" y1="0%" x2="50%" y2="100%" id="b"><stop stop-color="#FFF" stop-opacity=".8" offset="0%"/><stop stop-color="#FFF" stop-opacity=".4" offset="5%"/><stop stop-color="#FFF" stop-opacity="0" offset="20%"/><stop stop-color="#FFF" stop-opacity="0" offset="100%"/></linearGradient><linearGradient x1="50%" y1="0%" x2="50%" y2="100%" id="d"><stop stop-opacity="0" offset="0%"/><stop stop-opacity="0" offset="80%"/><stop stop-opacity=".02" offset="95.026%"/><stop stop-opacity=".04" offset="100%"/></linearGradient><path id="a" d="M.291 279.238h455.075V.23H.291z"/><mask id="c" x="0" y="0" width="455.075" height="279.007" fill="#fff"><use xlink:href="#a"/></mask><mask id="e" x="0" y="0" width="455.075" height="279.007" fill="#fff"><use xlink:href="#a"/></mask></defs><g fill="none" fill-rule="evenodd"><mask id="f" fill="#fff"><use xlink:href="#a"/></mask><g stroke-width="2"><use stroke="url(#b)" mask="url(#c)" fill="#999" xlink:href="#a"/><use stroke="url(#d)" mask="url(#e)" xlink:href="#a"/></g><g mask="url(#f)"><path d="M301.563 280.618c.406-.08 4.629.492 5.036-.567.406-1.054-3.166-3.41-2.762-3.657.406-.243.568-2.842 1.217-2.842.652 0 6.581.163 6.906 0 .324-.161 1.462-2.273 2.436-2.354.445-.037 1.14.504 1.77 1.102 1.092-1.015 1.478-3.296 1.686-5.15.253-2.27-.505-3.028.672-4.29 1.18-1.265 2.44-1.346 2.103-3.115-.335-1.766-1.933 0-3.28-.84-1.346-.841-2.525-.25-5.975.253-3.45.503-5.048 1.937-4.88 4.374.168 2.442-1.177 1.348-1.093 3.45.084 2.103-2.691 2.188-2.525 3.454.169 1.26-2.187 0-2.86-.425-.674-.42-7.91 1.77-8.92 1.935-1.008.17-2.86-2.1-4.29-2.017-1.43.082-2.02-2.105-2.189-3.874-.168-1.765-2.86-3.365-4.038-4.96-1.18-1.6-1.346-5.136-1.43-7.408-.085-2.272-.338-6.143 1.263-10.6.213-.6.313-1.12.339-1.584-.583-.359-1.15-.615-1.578-.591-1.438.091-4.674-1.887-5.305-1.887-.628 0-.539-1.528-1.077-2.337-.54-.81-.181-2.34-.9-2.88-.72-.535-2.876-2.603-3.594-5.123-.72-2.517-5.124-3.774-6.743-3.862-1.617-.09-2.517 3.327-2.966 3.503-.448.18-3.506-1.795-4.404-2.247-.9-.447-1.349-1.347-1.349-2.424 0-1.082-1.888-2.79-2.427-2.966-.54-.182-4.314-3.868-4.314-3.868h-5.933l-1.259 1.616-10.785.091s-8.27-3.055-9.8-3.413c-1.528-.358-4.224-2.248-4.224-2.248l-8.724 1.144c.447.959 1.071 1.997 2.008 3.161 1.766 2.188 3.029 6.057 3.198 7.403.167 1.347 2.607 2.44 4.71 3.79 2.105 1.341 2.105 4.288 1.852 5.045-.253.757-2.86-.503-3.029.253-.17.758 3.365 3.7 4.712 3.535 1.346-.17 2.02.672 4.122 2.525 2.104 1.848 1.937 4.037 1.094 4.71-.841.674 1.683 2.103 4.376 3.868 2.692 1.768 3.786 3.957 4.039 4.88.251.928 1.43.086 1.85-1.177.422-1.261-.84-1.599-.84-3.028 0-1.432-2.19-1.179-3.199-1.344-1.01-.172.085-2.358-.924-3.368-1.01-1.01-1.937-3.535-2.441-5.384-.504-1.853-3.114-3.701-4.207-5.72-1.093-2.022-2.27-3.62-3.028-4.126-.759-.504 1.093-1.26.42-2.018-.674-.757-1.684-.674-2.945-1.264-1.262-.587-2.104-1.596-2.104-2.943 0-1.348-.842-4.544-1.262-5.637-.421-1.094.926-.925 1.347-.422.42.503.757 1.011 1.347.675.589-.336 1.597-.087 2.019.84.42.925 1.851.084 2.523.506.673.42-1.515.926.673 4.795 2.188 3.87.673 1.683.673 4.293 0 2.608 1.348 1.43 1.768 1.008.42-.42 1.598.84 2.691 2.187 1.095 1.349 3.199 1.43 3.199 2.186 0 .76.419 2.275 1.85 2.526 1.431.252 1.684 1.85 2.609 2.02.925.169 1.093 1.179.589 2.27-.505 1.096 0 2.022 2.355 2.947 2.357.926 1.264 1.093 3.114 2.86 1.85 1.769 7.068 7.488 8.162 9.088 1.093 1.6 1.43 2.944 1.85 4.12.421 1.18-.841 1.77-.168 2.78.673 1.01-1.262.589-1.177 1.345.083.76 1.177 4.543 3.028 4.713 1.852.168 3.956 2.436 5.47 3.702 1.514 1.26 3.785 1.009 6.058 1.85 2.272.84 4.206 2.86 7.489 3.788 3.281.927 6.48 2.356 8.582 3.7 2.103 1.347 4.712.761 7.657-.418 2.945-1.18 5.217.334 6.9 1.008.83.333 2.455 1.726 4.083 3.177 1.486-2.134 2.915-4.057 3.103-4.098" fill="#F0F0F0"/><path d="M301.563 280.618c.406-.08 4.629.492 5.036-.567.406-1.054-3.166-3.41-2.762-3.657.406-.243.568-2.842 1.217-2.842.652 0 6.581.163 6.906 0 .324-.161 1.462-2.273 2.436-2.354.445-.037 1.14.504 1.77 1.102 1.092-1.015 1.478-3.296 1.686-5.15.253-2.27-.505-3.028.672-4.29 1.18-1.265 2.44-1.346 2.103-3.115-.335-1.766-1.933 0-3.28-.84-1.346-.841-2.525-.25-5.975.253-3.45.503-5.048 1.937-4.88 4.374.168 2.442-1.177 1.348-1.093 3.45.084 2.103-2.691 2.188-2.525 3.454.169 1.26-2.187 0-2.86-.425-.674-.42-7.91 1.77-8.92 1.935-1.008.17-2.86-2.1-4.29-2.017-1.43.082-2.02-2.105-2.189-3.874-.168-1.765-2.86-3.365-4.038-4.96-1.18-1.6-1.346-5.136-1.43-7.408-.085-2.272-.338-6.143 1.263-10.6.213-.6.313-1.12.339-1.584-.583-.359-1.15-.615-1.578-.591-1.438.091-4.674-1.887-5.305-1.887-.628 0-.539-1.528-1.077-2.337-.54-.81-.181-2.34-.9-2.88-.72-.535-2.876-2.603-3.594-5.123-.72-2.517-5.124-3.774-6.743-3.862-1.617-.09-2.517 3.327-2.966 3.503-.448.18-3.506-1.795-4.404-2.247-.9-.447-1.349-1.347-1.349-2.424 0-1.082-1.888-2.79-2.427-2.966-.54-.182-4.314-3.868-4.314-3.868h-5.933l-1.259 1.616-10.785.091s-8.27-3.055-9.8-3.413c-1.528-.358-4.224-2.248-4.224-2.248l-8.724 1.144c.447.959 1.071 1.997 2.008 3.161 1.766 2.188 3.029 6.057 3.198 7.403.167 1.347 2.607 2.44 4.71 3.79 2.105 1.341 2.105 4.288 1.852 5.045-.253.757-2.86-.503-3.029.253-.17.758 3.365 3.7 4.712 3.535 1.346-.17 2.02.672 4.122 2.525 2.104 1.848 1.937 4.037 1.094 4.71-.841.674 1.683 2.103 4.376 3.868 2.692 1.768 3.786 3.957 4.039 4.88.251.928 1.43.086 1.85-1.177.422-1.261-.84-1.599-.84-3.028 0-1.432-2.19-1.179-3.199-1.344-1.01-.172.085-2.358-.924-3.368-1.01-1.01-1.937-3.535-2.441-5.384-.504-1.853-3.114-3.701-4.207-5.72-1.093-2.022-2.27-3.62-3.028-4.126-.759-.504 1.093-1.26.42-2.018-.674-.757-1.684-.674-2.945-1.264-1.262-.587-2.104-1.596-2.104-2.943 0-1.348-.842-4.544-1.262-5.637-.421-1.094.926-.925 1.347-.422.42.503.757 1.011 1.347.675.589-.336 1.597-.087 2.019.84.42.925 1.851.084 2.523.506.673.42-1.515.926.673 4.795 2.188 3.87.673 1.683.673 4.293 0 2.608 1.348 1.43 1.768 1.008.42-.42 1.598.84 2.691 2.187 1.095 1.349 3.199 1.43 3.199 2.186 0 .76.419 2.275 1.85 2.526 1.431.252 1.684 1.85 2.609 2.02.925.169 1.093 1.179.589 2.27-.505 1.096 0 2.022 2.355 2.947 2.357.926 1.264 1.093 3.114 2.86 1.85 1.769 7.068 7.488 8.162 9.088 1.093 1.6 1.43 2.944 1.85 4.12.421 1.18-.841 1.77-.168 2.78.673 1.01-1.262.589-1.177 1.345.083.76 1.177 4.543 3.028 4.713 1.852.168 3.956 2.436 5.47 3.702 1.514 1.26 3.785 1.009 6.058 1.85 2.272.84 4.206 2.86 7.489 3.788 3.281.927 6.48 2.356 8.582 3.7 2.103 1.347 4.712.761 7.657-.418 2.945-1.18 5.217.334 6.9 1.008.83.333 2.455 1.726 4.083 3.177 1.486-2.134 2.915-4.057 3.103-4.098z" stroke="#999" stroke-width=".5"/><path d="M312.609 284.032c.826-.667 1.533-1.467 2.047-2.116-1.32.715-1.721.03-1.528-.9l-1.9.256.195-7.668c-1.53.067-5.82-.05-6.369-.05-.65 0-.81 2.597-1.216 2.84-.406.248 3.167 2.604 2.76 3.657-.405 1.058-4.63.486-5.035.567-.188.04-1.617 1.965-3.103 4.099 1.675 1.49 3.352 3.041 4.162 3.553 1.598 1.011 4.207-.084 5.3.926.034.029.081.062.121.092 1.138-1.08 2.316-2.139 2.697-2.248.814-.248.163-1.627 1.869-3.008" fill="#F0F0F0"/><path d="M312.609 284.032c.826-.667 1.533-1.467 2.047-2.116-1.32.715-1.721.03-1.528-.9l-1.9.256.195-7.668c-1.53.067-5.82-.05-6.369-.05-.65 0-.81 2.597-1.216 2.84-.406.248 3.167 2.604 2.76 3.657-.405 1.058-4.63.486-5.035.567-.188.04-1.617 1.965-3.103 4.099 1.675 1.49 3.352 3.041 4.162 3.553 1.598 1.011 4.207-.084 5.3.926.034.029.081.062.121.092 1.138-1.08 2.316-2.139 2.697-2.248.814-.248.163-1.627 1.869-3.008z" stroke="#999" stroke-width=".5"/><path d="M311.96 273.552c-.05.027-.252.045-.536.052l-.196 7.667 1.9-.255c.136-.657.568-1.433 1.19-1.916 1.514-1.18-.758-5.89 1.009-6.31.324-.08.595-.265.841-.493-.627-.598-1.325-1.136-1.773-1.099-.973.081-2.11 2.193-2.436 2.354" fill="#F0F0F0"/><path d="M311.96 273.552c-.05.027-.252.045-.536.052l-.196 7.667 1.9-.255c.136-.657.568-1.433 1.19-1.916 1.514-1.18-.758-5.89 1.009-6.31.324-.08.595-.265.841-.493-.627-.598-1.325-1.136-1.773-1.099-.973.081-2.11 2.193-2.436 2.354z" stroke="#999" stroke-width=".5"/><path d="M372.207 264.795c-1.683 1.18 2.523 3.704 2.523 5.217 0 1.513-6.752-.284-7.405 1.348-.336.84 2.357 2.017 4.882 1.175 2.35-.781 3.964.035 5.265.694.187-2.548.48-5.421.746-7.375-2.133-.547-4.786-1.917-6.011-1.059" fill="#F0F0F0"/><path d="M372.207 264.795c-1.683 1.18 2.523 3.704 2.523 5.217 0 1.513-6.752-.284-7.405 1.348-.336.84 2.357 2.017 4.882 1.175 2.35-.781 3.964.035 5.265.694.187-2.548.48-5.421.746-7.375-2.133-.547-4.786-1.917-6.011-1.059z" stroke="#999" stroke-width=".5"/><path d="M382.472 271.696c3.028-1.011 7.91.839 7.91-1.516 0-2.356-8.08-4.88-10.098-4.204-.55.18-1.273.083-2.066-.122-.267 1.953-.558 4.827-.746 7.375.096.051.195.101.287.149 1.347.673 1.683-.674 4.713-1.682" fill="#F0F0F0"/><path d="M382.472 271.696c3.028-1.011 7.91.839 7.91-1.516 0-2.356-8.08-4.88-10.098-4.204-.55.18-1.273.083-2.066-.122-.267 1.953-.558 4.827-.746 7.375.096.051.195.101.287.149 1.347.673 1.683-.674 4.713-1.682z" stroke="#999" stroke-width=".5"/><path d="M360.931 260.085c-2.523 0-10.77-5.724-18.342-7.407-7.573-1.682-14.177 3.76-13.463 4.712 1.01 1.347 4.712-1.685 6.564-3.03 1.85-1.344 3.533.673 3.7 1.516.17.84 2.525 1.345 6.397 1.514 3.87.171 4.375 3.366 8.076 4.205 3.702.845 0 2.362 1.851 3.031 1.851.675 11.611.504 12.285-.336.675-.839-4.543-4.205-7.068-4.205" fill="#F0F0F0"/><path d="M360.931 260.085c-2.523 0-10.77-5.724-18.342-7.407-7.573-1.682-14.177 3.76-13.463 4.712 1.01 1.347 4.712-1.685 6.564-3.03 1.85-1.344 3.533.673 3.7 1.516.17.84 2.525 1.345 6.397 1.514 3.87.171 4.375 3.366 8.076 4.205 3.702.845 0 2.362 1.851 3.031 1.851.675 11.611.504 12.285-.336.675-.839-4.543-4.205-7.068-4.205z" stroke="#999" stroke-width=".5"/><path d="M352.349 271.696c.672 1.176 7.067 2.86 7.74 1.344.674-1.515-8.575-2.81-7.74-1.344" fill="#F0F0F0"/><path d="M352.349 271.696c.672 1.176 7.067 2.86 7.74 1.344.674-1.515-8.575-2.81-7.74-1.344z" stroke="#999" stroke-width=".5"/><path d="M395.597 272.03c1.514 2.358 5.848.95 6.227 0 .673-1.684-7.742-2.355-6.227 0" fill="#F0F0F0"/><path d="M395.597 272.03c1.514 2.358 5.848.95 6.227 0 .673-1.684-7.742-2.355-6.227 0z" stroke="#999" stroke-width=".5"/><path d="M453.935 20.618c.11-1.794-1.907-.673-3.028-2.805-1.123-2.132-6.85-3.012-7.404-1.344-.226.672-2.02 1.682-.562 3.25 1.458 1.575 2.468.899 4.152 2.469 1.681 1.57 6.73.223 6.842-1.57m139.788-97.714c-4.153 0-7.518.672-7.74 3.588-.228 2.918-5.497-.56-7.742.449-2.245 1.01-1.123-2.355-3.366-1.235-2.245 1.123-4.71 3.816-7.405 4.937-2.693 1.122-4.712 3.926-6.394 4.15-1.684.226 3.59-5.158 6.282-7.852 2.692-2.693 1.233-5.835-2.358-5.498-3.59.337-2.804 2.58-4.825 3.03-2.019.45-11.665 5.271-12.114 3.815-.45-1.459 7.966-3.928 7.854-4.94-.114-1.009-10.66-1.12-15.369-.444-4.713.672-13.015 3.365-13.127 2.019-.113-1.347 9.65-3.256 14.583-3.817 5.048-.573 14.025.337 17.839-1.232 3.814-1.572 9.535-1.682 10.546-2.918 1.008-1.234-4.377-2.917-7.067-2.804-2.694.112-5.384-.226-5.164-1.572.226-1.347-4.15-1.683-4.598-2.692-.45-1.01-8.863-.224-10.658-1.347-1.795-1.119-7.068-1.682-11.555-1.347-4.487.337-13.69.228-15.819.45-2.13.223-3.478 1.01-5.384.897-1.906-.11-4.826.563-3.702 1.797 2.032 2.233-3.03 3.142-2.692 1.459.336-1.684-4.376-2.47-5.834-1.236-1.663 1.407-9.202-1.457-10.324 0-1.12 1.459-9.984 1.01-12.564 1.459-2.58.449 4.04 2.355 3.815 3.479-.224 1.121-8.415 0-6.731 2.018 1.683 2.02 7.067 3.477 9.647 6.059 2.58 2.579-2.018 1.01-4.936-.9-2.915-1.906-6.62-1.233-8.412-3.14-1.797-1.907-8.529-3.364-10.21-2.245-2.003 1.338 4.599 3.815 4.599 5.275 0 1.458-4.487-.337-5.273.225-.786.562-4.712-3.815-6.954-3.815-2.244 0-.338 2.018-.338 4.823 0 2.805-4.374 4.489-3.14 2.581 1.231-1.907.336-6.844-2.02-7.742-2.356-.897-8.414 1.91-11.557 1.796-3.14-.11-7.29.897-4.6 2.47 2.695 1.569-.11 2.465-2.467.784-2.356-1.685-10.097 0-8.525 1.12 1.57 1.125 2.132 4.377 1.122 5.724-1.01 1.345-4.264-1.347-7.294-1.124-3.029.227-18.06 7.405-17.164 9.314.896 1.906 7.292.336 9.312 1.456 2.019 1.122-.674 5.274-3.14 6.957-2.47 1.684-11.669.111-11.894 2.13-.224 2.02-14.471 2.357-14.471 5.612 0 1.233.672 2.465 2.242 2.802 2.016.434 4.489-.222 6.284 1.796 1.796 2.02 6.843 2.133 10.32.786 3.478-1.347 6.06.223 5.945 2.242-.111 2.021-7.85-.786-10.208.675-2.355 1.459-9.65.222-9.312 1.795.336 1.57 3.928 1.233 6.844 1.793 2.916.562.223 1.796.113 3.03-.113 1.236 1.57 1.008 4.486 2.468 2.918 1.46 7.742 2.356 6.17.673-1.57-1.683 3.03-1.46 3.816-.449.785 1.008 2.916-1.456 5.05-.897 2.13.561 2.917-2.02 4.597-.896 1.685 1.123 9.539 1.793 12.23 3.253 2.693 1.459 6.395 1.796 6.059 3.926-.337 2.132 2.241 3.7 5.27 5.048 3.03 1.347 3.592 4.265 3.48 6.17-.112 1.91 3.253 3.254 2.692 4.153-.562.897-.112 2.13 1.909 3.924 2.017 1.798-3.143 3.143-1.909 4.714 1.233 1.572-1.796 4.597 1.796 5.16 3.59.56 3.028-2.469 5.722-2.469 2.691 0-.112 2.357 1.345 3.815 1.458 1.458 4.487 1.122 7.294 3.477 2.801 2.355 1.008 3.48-1.573 1.573-2.58-1.91-10.097-1.459-10.097-.787 0 .673 8.303 5.385 10.21 4.711 1.906-.672 4.486 2.807 3.365 3.927-1.124 1.121-.56 3.928-.787 5.274-.223 1.347-3.027 0-4.822.226-1.795.224-3.029.783-3.029 2.688 0 1.912-2.804 3.255-3.14 5.61-.338 2.356 2.24 2.248 3.7 3.255 1.46 1.012-2.69 1.683-2.915 3.368-.226 1.68 3.812 4.712 5.271 5.496 1.459.782.113 4.6.672 6.508.56 1.907 2.471-.453 2.244 2.016-.223 2.47 1.796 2.357 1.909 3.817.113 1.457 3.59 1.233 2.918 3.25-.676 2.024 1.007 3.481 1.795 4.6.784 1.125 3.7 3.032 4.26 4.49.561 1.457 2.244 3.363 4.264 2.805 2.019-.563 2.132 1.347 3.702 1.119 1.569-.22 4.04.672 4.489 1.91.45 1.234 5.271 2.356 6.617 2.579 1.347.226 1.573-2.243 2.808-2.915 1.232-.672.785-5.611 1.905-5.947 1.123-.336.785-5.496-.337-5.945-1.122-.45-.674-2.246 1.909-1.908 2.578.338 1.683-2.245 2.914-2.58 1.234-.338.674-2.694 1.572-2.918.897-.225.786-1.796.111-2.692-.672-.896.116-1.57 1.462-1.794 1.345-.226 1.008-2.13-.787-2.806-1.797-.672-1.234-2.69.56-1.457 1.797 1.231 3.141.333 2.132-1.011-1.011-1.347 1.234-2.02 3.59-2.243 2.354-.226 3.591-1.46 3.142-3.257-.45-1.79 2.692-1.683 1.905-.108-.784 1.57-.335 3.14.787 2.018 1.122-1.121 3.253-.336 7.07-1.458 3.812-1.12 7.515-4.265 8.41-7.292.9-3.03 5.274-2.693 4.715-4.712-.561-2.02.785-2.805 3.588-1.458 2.805 1.345.562-.898 3.702-.898 3.142 0 2.583-1.125 5.612-1.234 3.027-.113 10.88-1.457 13.574-3.702 2.691-2.245 8.411-4.151 10.768-5.61 2.355-1.46 2.92-2.693 1.46-1.905-1.46.785-4.489.894-6.731.335-2.244-.56-5.836-2.469-8.416-1.011-2.577 1.461-1.007-2.13 1.123-2.468 2.132-.337 1.235-1.345.674-3.589-.56-2.242 3.59-.786 5.386 1.794 1.795 2.58 5.27 3.7 8.3 2.805 3.029-.896.113-3.366 1.347-5.048 1.233-1.684-9.312-6.955-9.874-8.75-.558-1.797 2.691-.56 5.611.672 2.916 1.233 3.59-2.355 3.59-3.926 0-1.57-6.283-1.683-9.09-.114-2.804 1.57-5.497-2.019-1.68-2.467 3.815-.447.336-2.02 1.46-3.139 1.121-1.125 5.942 3.25 8.413 2.465 2.468-.783 4.262.114 6.395-1.57 2.132-1.681-3.817-3.252-5.048-4.713-1.234-1.458 6.167-.895 8.413-.785 2.242.113 2.803-3.252 1.01-2.58-1.798.674-8.192-2.242-6.846-4.261 1.348-2.02 3.815.336 6.619-1.124 2.804-1.459.227-6.955-1.793-6.955-2.019 0-6.73-.672-6.73-1.681 0-1.01-3.928-1.91-2.808-2.919 1.123-1.01 2.585 1.237 5.162-.674 2.582-1.906 7.963.45 10.322 0 2.356-.446-1.008-4.82-2.359-4.038-1.344.786-5.942 1.01-6.28-1.346-.334-2.356 4.376 0 5.16-1.121.785-1.123-6.505-4.038-7.629-1.682-1.122 2.356-5.161 1.57-3.028.223 2.131-1.345 2.582-5.16 2.356-7.067-.225-1.908 7.63-2.02 6.731-5.161-.897-3.14 3.7-3.814 6.285-3.814 2.577 0-.114-3.365-2.585-3.029-2.466.336-5.047 3.14-6.28 2.02-1.233-1.123 2.916-3.142 5.161-3.142 2.244 0 7.63-.225 9.535-1.347 1.907-1.12-3.365-2.132-6.955-1.683-3.59.45-3.59-1.123 1.796-1.233 5.386-.113 4.486-1.236 8.303-1.682 3.815-.45 2.576-2.02 4.932-2.132 2.358-.112 8.528-2.693 8.528-3.928 0-1.235-8.862-3.7-13.012-3.7" fill="#F0F0F0"/><path d="M453.935 20.618c.11-1.794-1.907-.673-3.028-2.805-1.123-2.132-6.85-3.012-7.404-1.344-.226.672-2.02 1.682-.562 3.25 1.458 1.575 2.468.899 4.152 2.469 1.681 1.57 6.73.223 6.842-1.57zm139.788-97.714c-4.153 0-7.518.672-7.74 3.588-.228 2.918-5.497-.56-7.742.449-2.245 1.01-1.123-2.355-3.366-1.235-2.245 1.123-4.71 3.816-7.405 4.937-2.693 1.122-4.712 3.926-6.394 4.15-1.684.226 3.59-5.158 6.282-7.852 2.692-2.693 1.233-5.835-2.358-5.498-3.59.337-2.804 2.58-4.825 3.03-2.019.45-11.665 5.271-12.114 3.815-.45-1.459 7.966-3.928 7.854-4.94-.114-1.009-10.66-1.12-15.369-.444-4.713.672-13.015 3.365-13.127 2.019-.113-1.347 9.65-3.256 14.583-3.817 5.048-.573 14.025.337 17.839-1.232 3.814-1.572 9.535-1.682 10.546-2.918 1.008-1.234-4.377-2.917-7.067-2.804-2.694.112-5.384-.226-5.164-1.572.226-1.347-4.15-1.683-4.598-2.692-.45-1.01-8.863-.224-10.658-1.347-1.795-1.119-7.068-1.682-11.555-1.347-4.487.337-13.69.228-15.819.45-2.13.223-3.478 1.01-5.384.897-1.906-.11-4.826.563-3.702 1.797 2.032 2.233-3.03 3.142-2.692 1.459.336-1.684-4.376-2.47-5.834-1.236-1.663 1.407-9.202-1.457-10.324 0-1.12 1.459-9.984 1.01-12.564 1.459-2.58.449 4.04 2.355 3.815 3.479-.224 1.121-8.415 0-6.731 2.018 1.683 2.02 7.067 3.477 9.647 6.059 2.58 2.579-2.018 1.01-4.936-.9-2.915-1.906-6.62-1.233-8.412-3.14-1.797-1.907-8.529-3.364-10.21-2.245-2.003 1.338 4.599 3.815 4.599 5.275 0 1.458-4.487-.337-5.273.225-.786.562-4.712-3.815-6.954-3.815-2.244 0-.338 2.018-.338 4.823 0 2.805-4.374 4.489-3.14 2.581 1.231-1.907.336-6.844-2.02-7.742-2.356-.897-8.414 1.91-11.557 1.796-3.14-.11-7.29.897-4.6 2.47 2.695 1.569-.11 2.465-2.467.784-2.356-1.685-10.097 0-8.525 1.12 1.57 1.125 2.132 4.377 1.122 5.724-1.01 1.345-4.264-1.347-7.294-1.124-3.029.227-18.06 7.405-17.164 9.314.896 1.906 7.292.336 9.312 1.456 2.019 1.122-.674 5.274-3.14 6.957-2.47 1.684-11.669.111-11.894 2.13-.224 2.02-14.471 2.357-14.471 5.612 0 1.233.672 2.465 2.242 2.802 2.016.434 4.489-.222 6.284 1.796 1.796 2.02 6.843 2.133 10.32.786 3.478-1.347 6.06.223 5.945 2.242-.111 2.021-7.85-.786-10.208.675-2.355 1.459-9.65.222-9.312 1.795.336 1.57 3.928 1.233 6.844 1.793 2.916.562.223 1.796.113 3.03-.113 1.236 1.57 1.008 4.486 2.468 2.918 1.46 7.742 2.356 6.17.673-1.57-1.683 3.03-1.46 3.816-.449.785 1.008 2.916-1.456 5.05-.897 2.13.561 2.917-2.02 4.597-.896 1.685 1.123 9.539 1.793 12.23 3.253 2.693 1.459 6.395 1.796 6.059 3.926-.337 2.132 2.241 3.7 5.27 5.048 3.03 1.347 3.592 4.265 3.48 6.17-.112 1.91 3.253 3.254 2.692 4.153-.562.897-.112 2.13 1.909 3.924 2.017 1.798-3.143 3.143-1.909 4.714 1.233 1.572-1.796 4.597 1.796 5.16 3.59.56 3.028-2.469 5.722-2.469 2.691 0-.112 2.357 1.345 3.815 1.458 1.458 4.487 1.122 7.294 3.477 2.801 2.355 1.008 3.48-1.573 1.573-2.58-1.91-10.097-1.459-10.097-.787 0 .673 8.303 5.385 10.21 4.711 1.906-.672 4.486 2.807 3.365 3.927-1.124 1.121-.56 3.928-.787 5.274-.223 1.347-3.027 0-4.822.226-1.795.224-3.029.783-3.029 2.688 0 1.912-2.804 3.255-3.14 5.61-.338 2.356 2.24 2.248 3.7 3.255 1.46 1.012-2.69 1.683-2.915 3.368-.226 1.68 3.812 4.712 5.271 5.496 1.459.782.113 4.6.672 6.508.56 1.907 2.471-.453 2.244 2.016-.223 2.47 1.796 2.357 1.909 3.817.113 1.457 3.59 1.233 2.918 3.25-.676 2.024 1.007 3.481 1.795 4.6.784 1.125 3.7 3.032 4.26 4.49.561 1.457 2.244 3.363 4.264 2.805 2.019-.563 2.132 1.347 3.702 1.119 1.569-.22 4.04.672 4.489 1.91.45 1.234 5.271 2.356 6.617 2.579 1.347.226 1.573-2.243 2.808-2.915 1.232-.672.785-5.611 1.905-5.947 1.123-.336.785-5.496-.337-5.945-1.122-.45-.674-2.246 1.909-1.908 2.578.338 1.683-2.245 2.914-2.58 1.234-.338.674-2.694 1.572-2.918.897-.225.786-1.796.111-2.692-.672-.896.116-1.57 1.462-1.794 1.345-.226 1.008-2.13-.787-2.806-1.797-.672-1.234-2.69.56-1.457 1.797 1.231 3.141.333 2.132-1.011-1.011-1.347 1.234-2.02 3.59-2.243 2.354-.226 3.591-1.46 3.142-3.257-.45-1.79 2.692-1.683 1.905-.108-.784 1.57-.335 3.14.787 2.018 1.122-1.121 3.253-.336 7.07-1.458 3.812-1.12 7.515-4.265 8.41-7.292.9-3.03 5.274-2.693 4.715-4.712-.561-2.02.785-2.805 3.588-1.458 2.805 1.345.562-.898 3.702-.898 3.142 0 2.583-1.125 5.612-1.234 3.027-.113 10.88-1.457 13.574-3.702 2.691-2.245 8.411-4.151 10.768-5.61 2.355-1.46 2.92-2.693 1.46-1.905-1.46.785-4.489.894-6.731.335-2.244-.56-5.836-2.469-8.416-1.011-2.577 1.461-1.007-2.13 1.123-2.468 2.132-.337 1.235-1.345.674-3.589-.56-2.242 3.59-.786 5.386 1.794 1.795 2.58 5.27 3.7 8.3 2.805 3.029-.896.113-3.366 1.347-5.048 1.233-1.684-9.312-6.955-9.874-8.75-.558-1.797 2.691-.56 5.611.672 2.916 1.233 3.59-2.355 3.59-3.926 0-1.57-6.283-1.683-9.09-.114-2.804 1.57-5.497-2.019-1.68-2.467 3.815-.447.336-2.02 1.46-3.139 1.121-1.125 5.942 3.25 8.413 2.465 2.468-.783 4.262.114 6.395-1.57 2.132-1.681-3.817-3.252-5.048-4.713-1.234-1.458 6.167-.895 8.413-.785 2.242.113 2.803-3.252 1.01-2.58-1.798.674-8.192-2.242-6.846-4.261 1.348-2.02 3.815.336 6.619-1.124 2.804-1.459.227-6.955-1.793-6.955-2.019 0-6.73-.672-6.73-1.681 0-1.01-3.928-1.91-2.808-2.919 1.123-1.01 2.585 1.237 5.162-.674 2.582-1.906 7.963.45 10.322 0 2.356-.446-1.008-4.82-2.359-4.038-1.344.786-5.942 1.01-6.28-1.346-.334-2.356 4.376 0 5.16-1.121.785-1.123-6.505-4.038-7.629-1.682-1.122 2.356-5.161 1.57-3.028.223 2.131-1.345 2.582-5.16 2.356-7.067-.225-1.908 7.63-2.02 6.731-5.161-.897-3.14 3.7-3.814 6.285-3.814 2.577 0-.114-3.365-2.585-3.029-2.466.336-5.047 3.14-6.28 2.02-1.233-1.123 2.916-3.142 5.161-3.142 2.244 0 7.63-.225 9.535-1.347 1.907-1.12-3.365-2.132-6.955-1.683-3.59.45-3.59-1.123 1.796-1.233 5.386-.113 4.486-1.236 8.303-1.682 3.815-.45 2.576-2.02 4.932-2.132 2.358-.112 8.528-2.693 8.528-3.928 0-1.235-8.862-3.7-13.012-3.7z" stroke="#999" stroke-width=".5"/><path d="M282.85 130.842c-1.843.204.168-4.879-3.199-6.731-3.956-2.176-5.72-6.226-5.72-8.414 0-2.186 3.364-3.196 4.71-1.514 1.347 1.683 3.366 8.584 4.543 10.77 1.178 2.188 1.178 5.722-.334 5.89m-58.558-61.164c-2.61 2.273-2.408 1.671-4.683 2.07-2.274.402-.468 2.678-3.211 2.878-2.744.204-9.368.47-10.304-1.069-.313-.514 3.614-.136 3.88-1.27.269-1.14 1.34-2.945 3.013-2.945 1.671 0 1.537-2.204-1.206-3.546-2.742-1.338 3.947-2.21 5.486-.067 1.539 2.142 4.283 3.682 5.82 2.142 1.538-1.54 10.303-5.821 10.303-3.815 0 2.008-6.49 3.347-9.098 5.622m-21.274-27.03c-2.21 2.742-2.945 3.146-5.22 2.742-2.275-.397-3.678.74-2.543 1.542 1.14.803 1.206 1.472-1.135 2.008-2.344.535-3.881 2.34-4.818 2.14-.937-.202 4.015-3.747 2.743-4.684-1.271-.935-4.415 1.609-4.482 2.744-.067 1.135-2.141 1.203-3.411 1.135-1.273-.066-2.945-1.272-1.676-1.404 1.273-.132.403-1.538 2.144-2.206 1.737-.67-.337-1.672.2-2.408.535-.737 4.08.736 4.148-.601.068-1.34-3.546-2.477-4.75-1.673-1.204.8-4.015 2.673-7.36 1.2-1.053-.461 8.43-1.468 10.038-2.94 1.603-1.472 8.827-3.147 9.365-1.809.533 1.339-3.88 2.21-1.741 3.414 2.14 1.205 5.621.402 6.422-.87.803-1.27 4.283-1.07 2.076 1.67M422.016 151.71c-1.177.168-.25-1.683-.084-2.607.168-.929-2.523.418-2.606 1.511-.085 1.096-1.935 1.516-1.935 2.189 0 1.964-.254.926-1.6 1.598-1.345.672-6.564 0-6.73-1.18-.169-1.175-3.956-1.764-4.124-3.365-.167-1.597-2.02-2.101-.506-3.868 1.517-1.769-.252-2.61-1.681-1.264-1.43 1.347-2.272-.755-.338-1.51 1.936-.76 5.554-1.517 3.703-4.883-1.85-3.364-13.463 1.01-16.407 2.692-2.946 1.682-6.648 7.069-8.246 7.069-1.599 0 2.776-2.862 3.45-3.955.673-1.096-.169-2.19.756-1.768.928.42 3.534-3.616 5.302-4.966 1.767-1.344 3.701-.08 3.954-1.175.254-1.096 1.096-1.852 2.777-3.366 1.682-1.515 21.793-1.264 23.727-1.18 1.936.085 5.723-2.524 6.815-4.207 1.095-1.682 2.526-1.682 5.217-1.513 2.693.167 3.957-2.272 5.301-3.196 1.346-.927.84-1.348-.336-1.599-1.179-.254-2.272-1.01-1.094-1.096 1.179-.082 1.768-.755 2.27-2.27.506-1.518-.42-.842-2.018-2.946-1.597-2.102-2.44.674-4.037.504-1.6-.166 1.092-2.186-.254-3.028-1.345-.842-3.871-.25-5.89 1.43-2.019 1.683-1.85-.083-3.618 1.598-1.768 1.682-1.768-.839-.925-1.512.841-.674 1.431.082 2.188-.925.758-1.012 1.514 0 3.449-1.265 1.935-1.26 3.619-.672 4.209-1.597.587-.926-.93-2.189-2.779-1.768-1.85.422-3.112-2.523-4.29-1.683-1.18.842-.925-1.262-2.272-.42-1.348.842-2.103-.252-2.693-1.852-.589-1.597-4.208-4.207-6.395-4.879-2.187-.675-.755-1.85.42-1.01 1.18.842 2.526-.84 3.031-1.684.504-.843-.841-1.597-1.516-1.682-.672-.087-.672-1.181-.504-2.021.169-.843-2.356-1.939-2.44-2.778-.085-.843-1.515-1.43-1.43-2.188.084-.757-1.43-1.85-1.43-2.859 0-1.01-2.526-3.031-2.61-4.208-.083-1.178-1.43-2.017-1.934-3.45-.505-1.43-1.178-.756-1.684 1.26-.503 2.022-2.271 1.939-1.767 2.61 1.037 1.384.253 1.43-.504 2.273-.757.843.504 2.103-.757 2.103-1.262 0-.673 2.61-1.346 1.432s-2.272-.843-2.272.336c0 1.176-2.692 2.27-3.787 2.187-1.094-.086-1.094-2.357-2.019-1.684-.926.673-.757-1.935-2.187-1.85-1.43.083-2.441-.085-2.02-1.347.42-1.261-2.44-1.85-1.514-2.608.924-.757-.253-2.102-.421-4.29-.168-2.189 1.262-2.356 1.262-3.197 0-.84-1.01-.84-2.02-.167-1.009.668-1.009-.926-2.104-.843-1.092.082-4.375-.083-4.542-1.601-.17-1.512-1.262-.754-1.766-2.186-.507-1.43-1.851-.337-1.851-1.344 0-1.011-.59-1.43-1.6-1.518-1.01-.085-1.346-1.175-2.693-1.345-1.346-.169-3.029.925-3.787 1.26-.757.339-2.691-1.175-3.45-.587-.757.587-.925-.419-3.027-1.009-2.105-.59-4.882-.76-5.05 0-.168.757-1.85 1.009-1.6 2.777.253 1.766 2.022 1.429 2.442 2.608.42 1.177-.842.756-.926 1.85-.084 1.095-1.178 1.012-1.178 1.767 0 .758.758.59 1.178 2.105.422 1.513 1.262 1.43 1.515 3.449.253 2.02-.674 1.598-1.515 1.851-.84.251.084 1.261-1.093 2.607-1.178 1.347-2.189 2.779-1.264 3.618.928.842 4.376 2.273 5.723 4.545 1.346 2.273 1.262 5.807.842 8.333-.423 2.525-3.282 3.113-5.386 5.299-2.104 2.19-4.291 1.852-5.3 1.935-1.01.085-.422 2.106 1.009 3.703 1.43 1.6.253 2.102 1.01 3.786.758 1.683 0 3.027 1.094 4.544 1.094 1.515.42 2.105-.843 3.198-1.261 1.095.507.506.59 1.936.083 1.43-.59.588-1.683-.17-1.092-.755-2.103 1.43-2.103 2.356 0 .926-2.61-1.26-3.198-1.18-.589.087.168-1.428-1.346-2.606-1.515-1.178-2.692-1.43-2.692-2.607 0-1.178-2.609-2.02-2.609-3.366s.337-4.797-.252-5.807c-.588-1.01-.084-2.103.42-3.027.506-.928-.588-2.358-2.103-2.358-1.514 0-3.617-.504-5.72-.337-2.106.168-3.284-.167-3.956-.757-.672-.59-2.61-1.85-5.216-2.525-2.608-.672-3.788-2.017-4.04-2.774-.252-.758-2.86-1.347-3.448-2.105-.589-.758-3.115-1.176-4.125-1.01-1.01.169-3.533-2.106-5.046-2.019-1.517.085-5.05 1.6-5.639 1.682-.59.086.085-1.26.505-1.851.42-.59-1.263-3.115-1.684-4.798-.42-1.682-1.01-3.534-2.776-3.283-1.766.253-3.702-.672-4.206-1.008-.506-.338-.59-5.133-.168-7.15.42-2.021 2.608-5.053 2.608-6.313 0-1.26 1.43-1.85 2.691-2.186 1.263-.338.253-2.777 1.515-2.944 1.263-.172 1.346-.675 1.6-1.683.251-1.013 1.767-.337.925-1.178-.842-.841-.17-1.095 1.767-1.095 1.934 0 4.795-.674 4.375-2.608-.422-1.934-5.47-.504-5.47-2.104s-6.395-1.683-5.973-2.607c.421-.926 6.395.672 8.581 1.513 2.189.842 2.778.758 4.544.673 1.768-.085.59-2.355.926-3.282.337-.925 3.703 1.43 5.639.927 1.933-.507 3.785-4.46 5.384-5.553 1.6-1.094.168-2.105-2.946-1.85-3.112.25-4.878-.927-6.561-2.19-1.685-1.26-1.516-2.271.251-2.103 1.768.166 5.974 3.62 7.573 3.7 1.598.087 4.376-3.111 5.72-4.122 1.348-1.009-1.26-1.43-2.186-2.186-.926-.757 1.597-1.263 2.946-1.263 1.345 0 1.934 1.178 2.44 1.767.505.589 2.86-.42 4.038-.42 1.178 0-.17-1.936-2.104-2.692-1.934-.757.085-2.188.674-1.01.589 1.178 1.934.925 2.608 2.273.98 1.962 1.6.671 3.281.082 1.684-.589 2.524-1.6 3.45-2.607.925-1.01 1.094.166 2.187-1.43 1.095-1.601-.504-3.113-1.85-4.124-1.347-1.01.084-2.018-1.263-2.69-1.346-.677-1.599-1.938.084-1.603 1.682.338 3.03-.168 3.786-1.344.758-1.18-2.523-1.43-1.008-2.274 1.514-.84.251-1.68-1.262-1.68-1.516 0-2.78-.756-2.863-2.02-.083-1.263-2.691-.419-4.29-1.18-1.6-.755-5.132-.587-5.974-.503-.841.084-.926 3.535.336 3.62 1.264.083 2.272 1.429 1.178 1.85-1.092.42.17 1.765-.672 1.68-.842-.08-2.188-.503-2.44 1.683-.253 2.19-.422 3.031-1.851 3.788-1.43.759-.338-2.44-1.682-2.355-1.347.085-1.515 2.693-.507 2.946 1.01.25 1.178 1.093 1.432 2.354.252 1.262-1.852.336-2.693 1.852-.842 1.511-.925-.675-2.105-1.683-1.178-1.012-2.607-2.695-2.522-3.955.073-1.106.672-1.514 1.597-1.683.925-.17 0-1.011-.084-2.524-.084-1.515-1.179-1.01-2.524-2.61-1.346-1.598-2.776-1.598-3.535-.84-.757.756-.251 2.188-1.429 2.692-1.179.506-.673 2.86-1.683 3.029-1.01.168-.42-4.123-1.262-4.541-.84-.424-.757-1.432.504-1.6 1.262-.168 2.02-1.515.926-1.515-1.093 0-3.03-1.178-3.787-1.515-.757-.338-2.018 1.43-2.86.755-.841-.67.084-2.355.167-3.28.086-.925 1.347.422 2.19-.757.84-1.178-2.356-1.178-2.356-2.44s-2.525-1.598-3.367-2.02c-.841-.42.59-2.524.168-3.365-.42-.842-3.533-3.618-4.878-3.365-1.347.252-1.685-1.768-.927-1.684.757.085 1.346-.419 2.778-2.019 1.429-1.598 1.597-2.104.587-2.44-1.01-.337-1.515-1.347.253-1.262 1.767.085 4.88 1.262 5.89.504 1.01-.757 4.208-5.72 5.469-7.487 1.262-1.768-.924-1.936-3.954-1.683-3.03.253-3.703-1.179-6.227-1.347-2.524-.167-7.236.505-7.91 1.262-.673.757 1.263 1.43 1.01 2.272-.252.84-1.766-.589-2.44-.252-.673.337.252 1.43 0 4.374-.252 2.946.59 3.114 1.43 4.208.842 1.094.674 2.525.674 4.375s-1.767 1.767-2.356 2.188c-.59.421 1.515 1.095 1.177 2.272-.334 1.178-2.102-.673-3.113-.338-1.009.338-1.85 3.198-.756 4.125 1.093.925 1.514.756.674 1.851-.842 1.093-1.768 2.69.251 4.29 2.02 1.6 5.722 1.43 7.658 2.693 1.934 1.262-.842.506-.086 1.935.758 1.433-1.261 1.936-1.178 3.031.085 1.092.842.504 1.852-1.348 1.01-1.85 1.767.505 1.682 2.105-.083 1.598-1.515.672-2.608 2.27-1.093 1.6-2.105 1.85-3.702 1.514-1.599-.334-.674 2.272 0 3.704.673 1.43-.17 1.933-2.02 1.43-1.85-.504-2.945-1.684-2.02-3.113.926-1.432 1.6-3.116.507-2.947-1.096.17-3.62-.08-4.376-1.26-.757-1.18.505-.673 2.777-.423 2.271.254.336-1.512 2.018-1.512 1.683 0 2.945.925 4.376-.34 1.43-1.259-.925-3.701-2.104-3.278-1.177.42-3.027.924-3.027-.252 0-1.18 2.018-.338 3.112-.59 1.094-.254-.59-1.765-2.272-1.347-1.682.421-2.86.506-4.207-.925s-3.787-2.272-4.375 1.009c-.59 3.283-2.946 1.515-3.87 2.61-.926 1.095 1.092 1.85 3.365 1.935 2.271.085 3.953 2.187 2.861 2.187-1.093 0-.59 1.599-1.768 1.011-1.177-.589-2.356 0-1.515 1.006.842 1.013-.336 1.43-.252 2.444.084 1.008-1.767.08-3.533-.086-1.767-.167-5.049.42-7.404.926-2.358.506-4.966-.337-5.974-1.432-1.01-1.091-2.356-.923-4.04-.923-1.683 0-1.178-1.6-3.365-1.683-2.187-.085-1.683-1.935-1.935-3.03-.252-1.094-4.627-.757-6.227.252-1.598 1.01-4.712.59-5.553 2.441-.84 1.852.757 1.599 1.683 1.599 1.287 0 1.178-1.514 3.534-1.179 2.356.337 4.039-2.44 5.048-1.43 1.01 1.01-4.04 2.942-6.225 3.281-2.189.338-1.684 2.104.42 5.218 2.103 3.112-.926 1.344-.926 2.86 0 1.513-3.955-.505-2.355-1.01 1.597-.506.84-2.104-.422-3.113-1.261-1.01-2.103 0-1.935-1.093.168-1.095-1.347.082-2.525-.841-1.179-.928-1.766-1.683-3.365-.843-1.598.843-3.45.589-6.983 1.178-3.535.588-10.012.42-11.191-.757-1.178-1.178 3.029-3.282 4.291-2.943 1.223.323.504-1.35-1.429-2.862-1.937-1.515-6.228-2.44-6.144-1.515.084.926-2.44.084-5.553-.503-3.112-.592-3.533-1.687-5.554-1.768-1.95-.084-5.047-.675-7.403-2.524-2.357-1.853-7.91-1.348-8.584.334-.673 1.683-2.523 1.598-4.374 1.598-1.852 0 .836-2.08.168-2.438-.887-.476.084-2.778-1.263-2.944-1.346-.171-2.608 5.552-5.131 5.382-2.525-.164-3.62-6.056-5.722-7.571-2.103-1.515-4.04-1.599-2.273.673 1.768 2.272-1.514.673-1.346 2.188.168 1.515-2.86 3.281-2.776 2.44.085-.84-1.683-1.768-3.702.587-2.018 2.356-3.45 2.02-3.618 1.18-.17-.842-6.143 2.187-5.89 3.197.253 1.01-.926 1.768-2.524 1.684-1.599-.085-.338-1.43.924-2.106 1.42-.754 5.303-3.87 7.32-4.204 2.021-.338 5.893-1.937 5.975-2.862.085-.926-1.935-.169-3.28-.422-1.347-.252-3.703 1.263-5.976 2.274-2.27 1.01-4.879.672-4.205 2.019.672 1.347-2.104-.17-2.693.76-.589.923-1.684-.088-.843-.593.843-.503-2.02-1.43-2.02-.842 0 .59-.503 1.347-2.523 1.347-2.018 0-4.038 1.43-2.691 2.443 1.344 1.008 2.187 1.512 1.512 2.186-.672.672-2.774-1.768-5.72-1.515-2.945.252-8.835-3.28-8.835-4.122 0-.684-4.141-.26-7.01-.567v58.156s1.456 1.085 2.017.412c.562-.672 1.572.224 3.48-.672 1.906-.898 2.578 1.01 2.578 1.904 0 .9 2.693 2.359 3.815 3.816 1.121 1.457 1.682 2.692 2.917 1.906 1.234-.782 3.478-1.234 3.478-2.695 0-1.453 5.16-1.68 5.16.23 0 1.906 5.273 4.15 8.19 9.307 2.917 5.164 2.468 6.285 6.731 7.968 4.263 1.684 4.153 2.58 3.59 4.041-.561 1.455 2.58 2.242.786 3.475-.689.474-1.655 1.161-2.589 1.83.083.74.75 1.215 1.607 1.93 1.01.842-1.85.842-1.01 1.598.842.756-.168 1.937.673 2.86.842.925 2.357.59 3.282-.166.926-.757 1.6.925.841 2.186-.755 1.263.842 2.19 1.6 1.263.757-.927 2.355 1.514 3.112 1.935.758.42 1.515 1.683.253 1.683s-1.094 2.187-.17 2.27c.928.087.842 1.264.842 2.021 0 .756 2.946 1.85 4.04 1.517 1.094-.34 2.103.67 2.608 1.597.505.925 2.525 1.597 3.282 1.008.757-.589 1.262 1.094 1.43 2.272.168 1.178 1.851.505 2.86.422 1.01-.086 1.6 1.345 2.274 1.093 1.48-.555 1.928 2.032 2.91 3.551l104.578-.563s.07-2.597 1.305-1.699c1.234.897.112 2.354 1.57 2.918 1.46.56 2.47 1.458 3.255 1.12.784-.334 2.13-1.458 3.476.116 1.346 1.567 2.356.222 3.14 1.232.787 1.007 2.245 1.796 3.254.562.82-1.002 3.923.209 5.427.762 1.843-1.478 3.303-4.633 4.952-4.633 2.187 0 7.74.503 8.077 3.364.336 2.863 3.703.17 4.04 2.863.284 2.285 2.509 4.089 2.137 5.3.64.399 1.44.933 2.161 1.502 1.068-.359 3.914.098 5.798.77 2.356.839 5.89-1.01 7.067 1.851 1.178 2.86 3.914 5.019 1.346 5.216-2.186.17-5.047-2.86-4.879-1.177.168 1.683-1.178.842-1.178 3.363 0 2.526-1.683 6.062-2.694 5.89-.036-.006-.064-.026-.096-.039-.172.955-.183 2.197.615 2.975 1.281-.93 3.12-2.534 4.699-2.43 2.524.169 3.197 1.684 4.881.509 1.682-1.18 2.018-1.683 2.355-.843.044.106.01.239-.057.377.641-.341 1.093-.67 1.124-.943.047-.423-.068-.989-.215-1.503-1.687.246-2.237.373-2.703-.793-.673-1.682 5.047-3.365 7.741-3.03 2.553.318 4.346-1.472 5.243-.374 1.62-1.453 4.377-3.832 5.078-3.832 1.01 0 13.016-.114 13.016-.114s4.15-2.58 4.71-4.935c.561-2.354 3.253-7.968 4.824-6.73 1.57 1.232 4.937.336 5.047 1.457.105 1.037-1.116 4.85 3.2 10.553 1.518-.96 3.087-1.711 3.982-1.662 1.513.084 3.785-1.935 4.46-3.199.672-1.26 1.597 1.18.25 1.602-1.344.422 1.095 1.427 3.451 1.345 2.356-.083-1.094.84-2.86.757-1.768-.085-2.524.168-4.88 2.526-2.357 2.355-1.767 3.028-.421 4.204 1.347 1.18 3.113.676 4.964-.924 1.851-1.6 1.767-3.199 3.618-3.113 1.85.083 6.647-1.685 8.75-2.355 2.103-.674.757-1.013.757-1.938s3.701-.925 5.05-1.852c1.345-.924-.253-1.682-1.433-1.511m-277.297-38.384c-3.03 1.611 4.251 9.293 5.771 8.329 1.04-.664-1.8-3.882-1.8-5.866 0-1.987-.945-4.072-3.971-2.463m304.167 30.921c-.67 1.234-1.68-.898-.222-2.02 1.457-1.12-.227-1.567-1.572-.894-1.346.668-1.01-3.032.225-3.704 1.234-.674-3.03-2.02-3.03-.787 0 1.237-3.03.448-3.367-.674-.335-1.12-2.464-1.454-1.682-2.241.787-.783-2.58-1.235-2.917.111-.335 1.347-1.346-.897.338-2.691 1.683-1.798 1.122-3.364 2.692-4.266 1.57-.897-.113-1.905-1.794-1.231-1.685.672-6.17 6.842-6.17 8.526 0 1.683-.115 3.703-1.683 3.588-1.571-.11-3.368 1.348-2.132 2.246 1.231.897-3.259 3.446-1.123 4.6 1.459.784 3.814-.337 5.834-.114 2.019.226 3.703.336 5.386-.895 1.682-1.236 1.682 1.118 3.477.895 1.795-.223-1.01 1.46-.898 2.692.113 1.235 1.908-.673 3.255-1.345 1.345-.672 3.027 0 2.355 1.123-.672 1.12 3.704 2.242 4.713.447 1.009-1.793-1.01-4.597-1.685-3.366m-42.688-10.04c.337 1.349 10.099 5.385 10.434 3.536.337-1.851-10.721-4.69-10.434-3.536M343.093-9c-1.01 2.186 2.188 2.186 2.356 4.712.168 2.523 3.366 3.365 5.723 1.85 2.355-1.514 9.086.449 9.086-1.514 0-1.851-7.067-5.217-9.593-4.713-2.522.507-6.562-2.524-7.572-.335m21.036 43.752c2.019-.336 1.646-3.45.504-5.048-.84-1.177-3.029-1.348-4.879-1.177-1.852.166-5.048 3.027-3.366 5.89 1.682 2.86 5.721.671 7.74.335m35.508 8.077c2.02.168 2.357 2.694 5.554 5.386 3.197 2.691 3.534.841 4.037-1.008.507-1.854 4.04-.34 3.872-2.19-.169-1.85 2.863-4.039 4.88-4.878 2.019-.843-1.682-2.862-4.375-2.695-2.693.17-3.197-1.683-3.197-2.861 0-1.178-5.05-4.037-6.731-3.533-1.683.504-4.544-2.187-6.731-2.357-2.189-.166-5.386-1.85-5.05-4.206.338-2.356 4.376.675 5.216-1.178.842-1.85-4.206-.84-4.374-2.188-.17-1.345 1.179-.842 2.187-1.682 1.01-.842-.842-2.525-2.02-3.197-1.177-.672-1.514 1.344-2.692 1.344-1.178 0-.168-1.85.674-3.029.841-1.177-3.87-2.522-5.89-1.85-2.02.673-2.693-.504-2.693-1.85s-3.533 0-4.88 1.009c-1.346 1.01-3.029-1.008-1.346-1.178 1.682-.168 3.701-1.515 3.197-3.029-.504-1.513-4.88-1.683-5.723.168-.84 1.852-4.374-2.019-4.374-3.534 0-1.514-5.384-.168-4.711-2.691.672-2.525-6.227-3.199-8.078-3.199-1.851 0-4.544 1.514-4.208 3.199.336 1.681-2.018 1.008-2.355-.842-.337-1.851-4.88 2.02-6.226 2.02s.84-4.882.167-6.396c-.673-1.515-1.682-2.02-2.692-4.542-1.01-2.525-6.058-1.516-7.405 0-1.345 1.512-5.721.84-8.075 3.196-2.357 2.357.166 4.711 1.177 5.554 1.009.84-3.534 2.187-2.02 3.533 1.514 1.346 3.87.674 4.04 2.86.166 2.188-5.554-.673-6.396-2.524-.842-1.851.335-3.533-.842-4.88-1.178-1.346-.167-3.029 2.02-5.384 2.187-2.355 3.87-2.02 3.87-3.366s-9.423-1.346-14.976 3.7c-5.555 5.05-3.871 11.781-3.534 13.128.336 1.346 5.216.673 8.076 1.514 2.862.842 1.347 2.02-.84 1.685-2.188-.338-5.89-1.011-5.722.504.168 1.514 4.712 4.374 7.405 3.702 2.692-.673 2.692-.673 3.87.84 1.178 1.515 4.375 1.01 7.573 1.18 3.197.167 6.9 1.344 8.414 1.513 1.514.17 3.365-.84 3.87-1.683.505-.84 6.732 1.347 8.583 1.178 1.851-.168.672-1.85-.505-2.356-1.177-.505-.674-2.692.841-1.85 1.515.842 4.039 1.345 4.544 2.86.429 1.288 1.85.673 2.02 1.851.167 1.18 5.553 2.524 5.72 3.872.168 1.346-5.217 2.018-3.701 3.197 1.515 1.177 3.869-1.517 5.89-1.682 2.018-.17 2.018 4.372 3.534 3.702 2.062-.918 3.702.84 5.72 3.701 2.02 2.862-.167 5.554 0 6.562.17 1.01 4.038.673 6.227-.505s4.206 1.347 5.89 2.86c1.683 1.518-6.227 4.04-5.553 2.693.673-1.345-4.712-5.383-9.592-3.534-4.881 1.851-1.515 4.713-1.01 6.396.505 1.684-4.375 3.364-8.92 1.853-4.543-1.518-3.197 1.006-5.047 1.006-1.85 0-3.87 2.86-2.188 4.714 1.682 1.849 5.385.17 8.414.336 3.03.168 3.366 1.01 3.702-.672.336-1.683 3.534-.843 5.722-.337 2.188.503 1.681 3.533 4.374 3.87 2.693.335.506 3.03 2.189 4.882 1.682 1.85 7.067.839 9.086 2.86 2.02 2.017 10.581 6.041 11.78 4.542 1.347-1.68-7.404-9.426-9.927-10.098-2.525-.672 2.523-1.512 5.721 1.011 3.196 2.524 7.908 3.704 10.265.672 2.356-3.028-2.02-2.186-2.02-4.374 0-2.188-1.515-5.218-3.87-5.218-2.357 0-8.413-4.712-6.227-5.719 2.188-1.01-.674-2.358 1.01-4.209 1.683-1.851 3.366 1.683 5.385 1.851m-55.028 14.81c.337-1.682-5.553-2.358-5.217-4.207.337-1.853-5.552-3.365-7.403-4.376-1.853-1.01-4.712-1.513-4.712-3.533 0-2.019-4.039-.506-4.208 2.523-.168 3.03-1.851 2.355-1.009 5.216.84 2.862-3.703 3.537-3.198 5.05.506 1.514 2.692-.169 4.712-.169 2.02 0-.546 2.816 2.02 3.028 2.02.17 5.553-2.185 6.395-3.532.84-1.347 2.524-1.851 4.878-.17 2.357 1.685 7.405 1.853 7.742.17m-12.116 9.256c2.692 1.683 6.73-2.862 6.395-4.207-.338-1.347-9.649 2.176-6.395 4.207m14.81 3.7c1.178-.165 3.532-4.374.503-4.207-3.029.17-2.336 4.47-.504 4.208M304.893-74.631c2.357-1.515 4.208-.504 2.189.506-2.02 1.008-1.347 1.683 1.514 1.514 2.862-.168-1.178.841-1.178 2.524s3.366.674 3.534 2.356c.167 1.682 7.404 2.355 9.592.337 2.186-2.02 1.346.504 1.178 1.85-.17 1.346 10.266 2.525 10.77.842.505-1.682 2.02-1.009 4.038-.505 2.02.505 11.95-1.85 12.117-3.871.168-2.02 3.197 1.01 0 3.198-3.198 2.187-9.592 1.851-12.453 2.693-2.86.841 1.851 2.86 4.712 5.048 2.86 2.187-3.702 1.01-6.394-1.851-2.693-2.861-8.752-2.861-11.948-2.693-3.197.168-2.19 6.059.166 6.059 2.357 0 4.714.841 7.069 4.542 2.357 3.704 7.405 2.861 7.405 4.544 0 1.682-6.563-1.345-10.266-2.019-3.701-.673-9.592 1.682-9.76 4.376-.17 2.692 5.386 2.355 9.087.168 3.703-2.187 1.01.672-.84 2.355-1.852 1.684 4.374 3.03 4.374 5.049 0 2.02-4.543 1.347-5.048-.505-.506-1.85-2.187-3.702-6.562-3.366-4.376.338-3.198 3.366-.506 3.704 2.692.336 2.861 2.354-.169 2.354-3.027 0-9.863 1.901-7.74 3.872 2.356 2.187 10.938 0 12.452 1.345 1.515 1.347 5.722 1.852 6.731.338 1.011-1.515 4.378-.842 7.743-.842s4.206.504 5.721 1.851c1.514 1.346 4.207.84 6.06-.505 1.85-1.346 1.85-1.346 4.204-1.346 2.357 0 2.861-1.514 1.685-3.365-1.18-1.852-4.208 1.345-4.545 0-.416-1.665-3.197-2.188-7.91-1.515-4.711.674-2.692-3.029.169-2.187 2.86.84 6.731.505 9.93-.338 3.196-.841.671-2.356.671-3.702 0-1.347 4.039-.504 7.07-.504 3.027 0 7.403-4.88 7.57-7.741.169-2.862-6.73-2.187-10.096-2.187-3.366 0 2.188-2.526 8.583-2.189 6.395.336 3.534-2.523 4.71-3.534 1.18-1.009 4.208 1.177 7.407.505 3.196-.673 1.008-3.366 3.196-3.366 1.551 0 5.05-2.355 11.95-6.226 6.897-3.87 12.283-3.198 12.619-5.384.338-2.189-9.592 0-11.275-.675-1.682-.673 6.9-2.523 8.92-2.018 2.019.504 4.713 0 11.612-3.367 6.9-3.364 3.87-4.207 1.01-3.7-2.862.504-6.06-.507-5.89-2.357.165-1.851-4.208-.17-4.377-1.177-.168-1.01-4.207-.506-8.583 1.177-4.374 1.682-.336-1.683 1.517-2.356 1.85-.674-11.109 0-13.296-1.514-2.187-1.515-4.713 2.523-6.731.504-2.02-2.02-7.236-.336-6.563 1.179.673 1.512-.84 1.512-2.861-.17-2.02-1.681-5.889.17-9.423-.336-3.534-.505-2.02 2.861-5.89 1.18-3.87-1.685-8.077-.843-6.899-.338 1.178.504-.337 1.514-2.02 1.01-1.684-.506-3.197.166-2.357 1.85.843 1.684-6.227-.505-6.227 1.348 0 1.85-2.522 2.86-4.542 1.178-2.02-1.685-8.415-2.189-6.563-.674 1.851 1.514-5.721.674-3.703 2.187 2.02 1.514-2.524 2.693-2.524 1.85 0-.841-4.208-2.355-5.89-.841-1.681 1.515-2.187 3.367-3.028 2.356-.842-1.008-4.544-.672-8.079.673-3.533 1.348.506 2.356 2.861.842m-20.36 16.66c2.48 1.243 1.008 2.862 3.7 4.04 2.694 1.177 10.434-1.516 11.107.336.673 1.85-7.91 2.019-6.732 3.197 1.178 1.177 6.06 3.03 5.386 4.04-.674 1.009 8.077 3.869 8.918 2.523.843-1.346 3.199-1.01 5.385-.168 2.19.84 2.356-5.218 3.871-4.208 1.515 1.01 1.346-2.187 3.87-3.197 2.526-1.01 6.162-1.02 6.397-2.187.167-.842-.675-2.02-3.705-1.683-3.026.336-5.047-.842-3.7-2.524 1.345-1.683-3.366-2.188-1.684-3.534 1.683-1.347-3.197-2.693-2.693-.674.506 2.02-3.027.168-3.534-1.683-.504-1.851-7.403-2.523-11.946-6.563-4.544-4.038-9.256-1.346-6.565-.842 2.694.506 2.525 1.853.34 1.685-2.19-.17-6.061.168-2.526 1.514 3.533 1.347-.337 1.85-3.198 1.85-2.862 0-3.029 3.703.674 4.207 3.702.506 1.01 2.693-2.02 1.852-3.028-.842-4.038.673-1.345 2.019m24.23 18.848c-3.028-1.515-6.83 1.688-3.7 2.86 2.692 1.009 6.73-1.346 3.7-2.86m-8.582 19.857c1.178 3.365 2.526 1.01 4.376 2.356 1.851 1.345 4.712 2.187 6.227.841 1.513-1.345 2.186-2.356 2.692-1.177.82 1.914 4.544 2.187 12.62 2.355 8.079.168 6.06-3.365 8.416-2.02 2.354 1.346 7.741 1.346 10.096.842 2.357-.505 3.535-4.206 3.365-6.057-.168-1.852-18.174-3.365-21.371-1.514-3.198 1.85-8.246-.843-10.771.504-2.522 1.346-1.682-1.683-6.226-1.853-4.542-.166.336-2.523 1.18-3.534.84-1.008-6.9-3.7-10.098-3.027-3.197.672-5.05-1.01-8.079-2.357-3.028-1.347-11.252-1.025-9.59 1.347 1.177 1.682 10.937 5.216 11.947 3.534 1.01-1.683 3.534 2.02 5.048 3.87 1.515 1.85-1.01 2.524.168 5.89M272.751 7.66c3.703 2.524 2.525-2.02 6.732-1.85 4.208.167 4.376-6.732 5.05-9.257.67-2.524-3.367-2.355-2.357-.504 1.008 1.85-.17 3.701-.505 1.514-.338-2.187-3.533-.167-4.712-1.85-1.178-1.684 3.702-1.851 4.881-4.04 1.178-2.187-3.872-1.851-2.693-3.534 1.178-1.683-7.405.17-4.88 1.179 2.524 1.01.167 2.355-2.188.672-2.356-1.682-8.882 1.133-6.564 3.03 1.852 1.513 7.405-1.01 4.208 3.365-3.198 4.376-4.542-1.179-7.573-.672-3.03.505-1.683 4.205 2.861 5.552 4.544 1.346 4.039 3.87 7.74 6.395m21.54-23.56c3.03-.168 1.516-3.87-1.85-6.395-3.366-2.523-10.928 2.665-9.591 3.703 1.512 1.179 8.413 2.862 11.442 2.692m1.85-24.57c-.335-1.009-13.094.53-11.105 2.023 3.365 2.522 11.443-1.011 11.106-2.022m-13.63-.84c2.524 0 4.542-.338 6.73-1.18 2.188-.841-1.177-.841.337-2.859 1.515-2.02-3.703-2.189-4.039-1.515-.337.672-6.9-4.039-7.909-2.526-1.01 1.515 2.356 8.08 4.88 8.08m-7.068 9.928c-.168 1.681-4.038-.336-7.068-1.514-3.03-1.178-1.177 2.356 1.18 4.373 2.355 2.02-1.18 1.011-4.375-1.178-3.199-2.186-2.864 1.517-1.349 2.695 1.514 1.177-.335 2.86-2.356.166-2.018-2.691-3.028-5.552-6.226-5.72-3.197-.17-1.74 3.107-.504 4.712 1.683 2.187 3.366 2.693 6.059 4.208 2.692 1.514 7.067-.674 9.086-.17 2.02.505-2.188 3.03-.841 4.712 1.345 1.684 5.048.505 7.909.337 2.86-.168 1.515-1.852 3.197-3.03 1.684-1.178-1.682-1.009-.337-3.87 1.347-2.862-4.207-7.404-4.375-5.721m-19.015 11.779c1.177-1.346-2.524-4.207-3.535-1.851-1.01 2.356 2.335 3.221 3.535 1.851m19.015-38.199c1.179-2.02-7.097-3.605-5.049-1.851 1.178 1.01 3.872 3.87 5.049 1.851m-21.877 22.044c1.347-1.682-5.385-7.068-5.72-4.543-.337 2.525 4.29 6.331 5.72 4.543m-1.178-14.135c2.02-1.347 5.723.84 5.05 2.355-.674 1.515-6.498-.304-6.058 1.011.168.504.84 2.524 4.878 1.346 4.039-1.178 7.405-.336 10.1 1.85 2.69 2.189 5.214 3.03 7.065.842 1.852-2.188-2.355-2.524-1.513-4.206.84-1.683-2.693-2.695-4.544-2.695-1.852 0-2.524-3.364-4.039-2.692-1.515.674-2.523 1.852-2.523-.336 0-2.187-8.752-2.356-10.94-1.513-2.187.841.506 5.384 2.524 4.038m-28.103 5.216c1.684.674 3.367-1.515 4.544-.504 1.178 1.01 6.395 1.85 6.395-.842s-6.563-3.03-8.246-2.019c-1.683 1.009-9.423 1.347-7.235 3.03 1.34 1.033 2.86-.337 4.542.335m8.247 3.197c2.187-.336 1.179-2.02-2.356-1.514-3.534.505-9.592.5-9.592 3.03 0 2.018 1.178 3.028 5.047 3.364 3.872.338 7.238-3.365 5.387-3.365-1.851 0-.674-1.177 1.514-1.515m-13.968.842c.841-2.02-5.574-1.685-5.047-1.01 1.178 1.515 4.204 3.03 5.047 1.01m-8.75 12.115c-2.356.17-2.188 2.526.505 2.526 2.691 0 3.534.842-.336.672-3.87-.166-5.555 3.199-2.862 2.525 2.692-.673 5.89-.673 3.87 0-2.02.674-7.52 1.137-6.731 2.187.505.674 2.692.506 4.88 1.347 2.188.84 3.535 1.346 5.217-.505 1.682-1.851 3.87-3.702 3.03-1.178-.842 2.524 2.692.674 7.235.504 4.545-.168-.84 2.693-5.553 3.03-4.712.337-3.869 2.692-.168 3.534 3.703.841 11.611-2.356 13.461-4.207 1.852-1.851 3.535 1.01 5.386-.337 1.851-1.346 5.385.169 8.582-.504 3.199-.674 3.703-6.732 1.347-7.741-2.355-1.01-2.355 1.179-4.206 1.515-1.851.336-2.862-2.02-4.376-3.535-1.515-1.515-.506-4.375-2.693-4.04-2.17.335-6.9 3.872-4.04 4.207 2.862.339 1.852 1.853.336 2.526-1.512.672 3.536 1.85 2.863 2.861-.673 1.01-8.415.167-8.75-1.515-.338-1.683-6.395-4.712-8.92-4.039-2.524.673-1.513-2.019-4.038-2.188-2.525-.167-1.684 2.188-4.04 2.355m-26.251.843c1.179.505 0 2.86 1.346 2.189 1.347-.675 1.683-.843 2.692-.506 1.82.607 2.186-1.01 3.03-1.851.84-.842.505 3.029 2.692 3.029 1.851 0 1.515-4.039 3.197-2.861 1.683 1.176 2.187-.504 2.525-1.683.336-1.177.336-3.197 2.187-3.533 1.851-.338.337 1.851 1.178 3.365 1.225 2.205 3.366.168 3.534-.842.17-1.01 3.197-.336 3.029-1.514-.168-1.178.841-1.515 0-2.862-.84-1.344 1.347-1.01 2.356-2.018 1.01-1.01-1.345-.169-3.028-1.681-1.684-1.517-2.357.502-2.357 1.512s-3.197.17-5.048-.504-4.208 2.186-6.9 3.533c-2.694 1.347-2.86 3.702-5.385 3.534-2.525-.167-6.226 2.189-5.048 2.693m13.966 4.71c3.03.338 6.058-2.355 5.89-3.87-.168-1.513-7.394 3.707-5.89 3.87m63.947 41.398c1.01-1.177 5.217 2.355 5.386-.167.168-2.525-4.712-3.704-6.73-5.048-2.02-1.347-2.86-.674-6.06-3.03-3.197-2.356.842-3.535-1.514-5.384-2.355-1.852-3.197-6.901-1.515-8.582 1.683-1.685 3.535-4.209.506-5.386-3.03-1.178-7.91 1.01-7.405 1.681.505.674 4.712 3.03 4.712 4.04 0 1.01-3.87-2.86-5.217-2.02-1.346.843-2.86-1.682-4.039 0-1.178 1.685 1.515 7.574 2.523 9.256 1.011 1.683-1.008 1.683-2.355 2.02-1.346.338-1.514-4.713-2.86-6.563-1.346-1.85-6.73-4.04-7.068-2.693-.336 1.346 3.365 1.346 2.86 3.197-.505 1.853-2.523-1.176-4.375.338-1.851 1.515-1.514.505-1.178-1.01.338-1.515-2.693-3.197-6.058-2.86-3.367.335-1.515 2.692-2.524 3.532-1.009.843-6.058-.504-2.861-1.176 3.198-.675 1.852-2.525.675-4.376-1.178-1.851-4.376.335-9.594 2.187-5.216 1.851-7.572 3.87-6.9 4.039.675.169.843 1.01-1.178 2.692-2.02 1.684 0 3.197 1.853 3.197 1.85 0 .22 1.483 1.513 1.852 1.178.338 7.237-2.356 8.919-1.178 1.684 1.178-9.928 1.851-9.928 3.872 0 2.018 6.395 3.195 11.106 2.355 4.713-.843 12.958.673 12.958 1.851s-5.554.84-9.76.672c-4.207-.166-11.442 1.178-11.107 2.525.376 1.506.841 1.515 5.217 3.533 4.376 2.02 8.919-1.01 8.75 1.851-.167 2.862 2.357 3.535 8.246 3.703 5.89.169 8.582-2.692 11.444-2.524 2.861.168 4.205-.337 5.554-2.355 1.344-2.02 2.524-.843 2.86.168.335 1.008 4.04.839 4.88 1.68 2.146 2.148 9.255 1.518 11.948.17 2.692-1.346-1.178-5.048-2.525-3.366-1.345 1.683-2.523.673-2.86-.167-.337-.843 2.692-1.347 3.7-2.526M177.336 4.63c3.03.674 3.36 6.058 5.386 6.058 1.347 0 .336-1.683 2.525-1.683 2.187 0 1.682-1.178 3.702-1.01 2.02.169 3.703-.505 3.703-2.86 0-2.356 1.515-3.197 3.533-3.703 2.019-.504.168-3.029 3.029-3.702 2.86-.672 10.77-4.039 12.116-5.048 1.347-1.01-1.683-2.356-4.712-4.207-3.03-1.85-5.385-2.356-7.74-.841-2.357 1.515-.506-1.683-2.357-.84-1.85.84-6.9-1.348-7.572-2.19-.673-.84-9.761 1.85-11.948 1.85-2.188 0 .168 2.357 1.683 3.535 1.514 1.179-3.703 4.88-2.693 5.723 1.01.84-1.01 3.028-3.365 5.72-2.358 2.693 1.683 2.525 4.71 3.198m2.862 133.702c-1.093-1.18-3.954-.928-4.375-2.022-.42-1.092-3.029-5.044-4.46-4.962-1.431.083-3.28.166-4.964-1.093-1.682-1.264-2.776-1.347-3.954-.59-1.178.758 1.261.926 1.178 1.766-.084.84.755 1.347 1.766 1.179 1.01-.167 1.599 1.936 2.608 2.02 1.01.085 1.346 1.68 2.524 1.68s1.43 1.348 2.02 2.105c.59.76 1.935.085 1.935.842 0 .678 1.346 1.291 1.686 2.142 2.304.275 4.277.491 5.993.015.018-.53.153-1.112.398-1.57.589-1.09-1.262-.335-2.355-1.512" fill="#F0F0F0"/><path d="M282.85 130.842c-1.843.204.168-4.879-3.199-6.731-3.956-2.176-5.72-6.226-5.72-8.414 0-2.186 3.364-3.196 4.71-1.514 1.347 1.683 3.366 8.584 4.543 10.77 1.178 2.188 1.178 5.722-.334 5.89zM224.292 69.68c-2.61 2.273-2.408 1.671-4.683 2.07-2.274.402-.468 2.678-3.211 2.878-2.744.204-9.368.47-10.304-1.069-.313-.514 3.614-.136 3.88-1.27.269-1.14 1.34-2.945 3.013-2.945 1.671 0 1.537-2.204-1.206-3.546-2.742-1.338 3.947-2.21 5.486-.067 1.539 2.142 4.283 3.682 5.82 2.142 1.538-1.54 10.303-5.821 10.303-3.815 0 2.008-6.49 3.347-9.098 5.622zm-21.274-27.03c-2.21 2.742-2.945 3.146-5.22 2.742-2.275-.397-3.678.74-2.543 1.542 1.14.803 1.206 1.472-1.135 2.008-2.344.535-3.881 2.34-4.818 2.14-.937-.202 4.015-3.747 2.743-4.684-1.271-.935-4.415 1.609-4.482 2.744-.067 1.135-2.141 1.203-3.411 1.135-1.273-.066-2.945-1.272-1.676-1.404 1.273-.132.403-1.538 2.144-2.206 1.737-.67-.337-1.672.2-2.408.535-.737 4.08.736 4.148-.601.068-1.34-3.546-2.477-4.75-1.673-1.204.8-4.015 2.673-7.36 1.2-1.053-.461 8.43-1.468 10.038-2.94 1.603-1.472 8.827-3.147 9.365-1.809.533 1.339-3.88 2.21-1.741 3.414 2.14 1.205 5.621.402 6.422-.87.803-1.27 4.283-1.07 2.076 1.67zM422.016 151.71c-1.177.168-.25-1.683-.084-2.607.168-.929-2.523.418-2.606 1.511-.085 1.096-1.935 1.516-1.935 2.189 0 1.964-.254.926-1.6 1.598-1.345.672-6.564 0-6.73-1.18-.169-1.175-3.956-1.764-4.124-3.365-.167-1.597-2.02-2.101-.506-3.868 1.517-1.769-.252-2.61-1.681-1.264-1.43 1.347-2.272-.755-.338-1.51 1.936-.76 5.554-1.517 3.703-4.883-1.85-3.364-13.463 1.01-16.407 2.692-2.946 1.682-6.648 7.069-8.246 7.069-1.599 0 2.776-2.862 3.45-3.955.673-1.096-.169-2.19.756-1.768.928.42 3.534-3.616 5.302-4.966 1.767-1.344 3.701-.08 3.954-1.175.254-1.096 1.096-1.852 2.777-3.366 1.682-1.515 21.793-1.264 23.727-1.18 1.936.085 5.723-2.524 6.815-4.207 1.095-1.682 2.526-1.682 5.217-1.513 2.693.167 3.957-2.272 5.301-3.196 1.346-.927.84-1.348-.336-1.599-1.179-.254-2.272-1.01-1.094-1.096 1.179-.082 1.768-.755 2.27-2.27.506-1.518-.42-.842-2.018-2.946-1.597-2.102-2.44.674-4.037.504-1.6-.166 1.092-2.186-.254-3.028-1.345-.842-3.871-.25-5.89 1.43-2.019 1.683-1.85-.083-3.618 1.598-1.768 1.682-1.768-.839-.925-1.512.841-.674 1.431.082 2.188-.925.758-1.012 1.514 0 3.449-1.265 1.935-1.26 3.619-.672 4.209-1.597.587-.926-.93-2.189-2.779-1.768-1.85.422-3.112-2.523-4.29-1.683-1.18.842-.925-1.262-2.272-.42-1.348.842-2.103-.252-2.693-1.852-.589-1.597-4.208-4.207-6.395-4.879-2.187-.675-.755-1.85.42-1.01 1.18.842 2.526-.84 3.031-1.684.504-.843-.841-1.597-1.516-1.682-.672-.087-.672-1.181-.504-2.021.169-.843-2.356-1.939-2.44-2.778-.085-.843-1.515-1.43-1.43-2.188.084-.757-1.43-1.85-1.43-2.859 0-1.01-2.526-3.031-2.61-4.208-.083-1.178-1.43-2.017-1.934-3.45-.505-1.43-1.178-.756-1.684 1.26-.503 2.022-2.271 1.939-1.767 2.61 1.037 1.384.253 1.43-.504 2.273-.757.843.504 2.103-.757 2.103-1.262 0-.673 2.61-1.346 1.432s-2.272-.843-2.272.336c0 1.176-2.692 2.27-3.787 2.187-1.094-.086-1.094-2.357-2.019-1.684-.926.673-.757-1.935-2.187-1.85-1.43.083-2.441-.085-2.02-1.347.42-1.261-2.44-1.85-1.514-2.608.924-.757-.253-2.102-.421-4.29-.168-2.189 1.262-2.356 1.262-3.197 0-.84-1.01-.84-2.02-.167-1.009.668-1.009-.926-2.104-.843-1.092.082-4.375-.083-4.542-1.601-.17-1.512-1.262-.754-1.766-2.186-.507-1.43-1.851-.337-1.851-1.344 0-1.011-.59-1.43-1.6-1.518-1.01-.085-1.346-1.175-2.693-1.345-1.346-.169-3.029.925-3.787 1.26-.757.339-2.691-1.175-3.45-.587-.757.587-.925-.419-3.027-1.009-2.105-.59-4.882-.76-5.05 0-.168.757-1.85 1.009-1.6 2.777.253 1.766 2.022 1.429 2.442 2.608.42 1.177-.842.756-.926 1.85-.084 1.095-1.178 1.012-1.178 1.767 0 .758.758.59 1.178 2.105.422 1.513 1.262 1.43 1.515 3.449.253 2.02-.674 1.598-1.515 1.851-.84.251.084 1.261-1.093 2.607-1.178 1.347-2.189 2.779-1.264 3.618.928.842 4.376 2.273 5.723 4.545 1.346 2.273 1.262 5.807.842 8.333-.423 2.525-3.282 3.113-5.386 5.299-2.104 2.19-4.291 1.852-5.3 1.935-1.01.085-.422 2.106 1.009 3.703 1.43 1.6.253 2.102 1.01 3.786.758 1.683 0 3.027 1.094 4.544 1.094 1.515.42 2.105-.843 3.198-1.261 1.095.507.506.59 1.936.083 1.43-.59.588-1.683-.17-1.092-.755-2.103 1.43-2.103 2.356 0 .926-2.61-1.26-3.198-1.18-.589.087.168-1.428-1.346-2.606-1.515-1.178-2.692-1.43-2.692-2.607 0-1.178-2.609-2.02-2.609-3.366s.337-4.797-.252-5.807c-.588-1.01-.084-2.103.42-3.027.506-.928-.588-2.358-2.103-2.358-1.514 0-3.617-.504-5.72-.337-2.106.168-3.284-.167-3.956-.757-.672-.59-2.61-1.85-5.216-2.525-2.608-.672-3.788-2.017-4.04-2.774-.252-.758-2.86-1.347-3.448-2.105-.589-.758-3.115-1.176-4.125-1.01-1.01.169-3.533-2.106-5.046-2.019-1.517.085-5.05 1.6-5.639 1.682-.59.086.085-1.26.505-1.851.42-.59-1.263-3.115-1.684-4.798-.42-1.682-1.01-3.534-2.776-3.283-1.766.253-3.702-.672-4.206-1.008-.506-.338-.59-5.133-.168-7.15.42-2.021 2.608-5.053 2.608-6.313 0-1.26 1.43-1.85 2.691-2.186 1.263-.338.253-2.777 1.515-2.944 1.263-.172 1.346-.675 1.6-1.683.251-1.013 1.767-.337.925-1.178-.842-.841-.17-1.095 1.767-1.095 1.934 0 4.795-.674 4.375-2.608-.422-1.934-5.47-.504-5.47-2.104s-6.395-1.683-5.973-2.607c.421-.926 6.395.672 8.581 1.513 2.189.842 2.778.758 4.544.673 1.768-.085.59-2.355.926-3.282.337-.925 3.703 1.43 5.639.927 1.933-.507 3.785-4.46 5.384-5.553 1.6-1.094.168-2.105-2.946-1.85-3.112.25-4.878-.927-6.561-2.19-1.685-1.26-1.516-2.271.251-2.103 1.768.166 5.974 3.62 7.573 3.7 1.598.087 4.376-3.111 5.72-4.122 1.348-1.009-1.26-1.43-2.186-2.186-.926-.757 1.597-1.263 2.946-1.263 1.345 0 1.934 1.178 2.44 1.767.505.589 2.86-.42 4.038-.42 1.178 0-.17-1.936-2.104-2.692-1.934-.757.085-2.188.674-1.01.589 1.178 1.934.925 2.608 2.273.98 1.962 1.6.671 3.281.082 1.684-.589 2.524-1.6 3.45-2.607.925-1.01 1.094.166 2.187-1.43 1.095-1.601-.504-3.113-1.85-4.124-1.347-1.01.084-2.018-1.263-2.69-1.346-.677-1.599-1.938.084-1.603 1.682.338 3.03-.168 3.786-1.344.758-1.18-2.523-1.43-1.008-2.274 1.514-.84.251-1.68-1.262-1.68-1.516 0-2.78-.756-2.863-2.02-.083-1.263-2.691-.419-4.29-1.18-1.6-.755-5.132-.587-5.974-.503-.841.084-.926 3.535.336 3.62 1.264.083 2.272 1.429 1.178 1.85-1.092.42.17 1.765-.672 1.68-.842-.08-2.188-.503-2.44 1.683-.253 2.19-.422 3.031-1.851 3.788-1.43.759-.338-2.44-1.682-2.355-1.347.085-1.515 2.693-.507 2.946 1.01.25 1.178 1.093 1.432 2.354.252 1.262-1.852.336-2.693 1.852-.842 1.511-.925-.675-2.105-1.683-1.178-1.012-2.607-2.695-2.522-3.955.073-1.106.672-1.514 1.597-1.683.925-.17 0-1.011-.084-2.524-.084-1.515-1.179-1.01-2.524-2.61-1.346-1.598-2.776-1.598-3.535-.84-.757.756-.251 2.188-1.429 2.692-1.179.506-.673 2.86-1.683 3.029-1.01.168-.42-4.123-1.262-4.541-.84-.424-.757-1.432.504-1.6 1.262-.168 2.02-1.515.926-1.515-1.093 0-3.03-1.178-3.787-1.515-.757-.338-2.018 1.43-2.86.755-.841-.67.084-2.355.167-3.28.086-.925 1.347.422 2.19-.757.84-1.178-2.356-1.178-2.356-2.44s-2.525-1.598-3.367-2.02c-.841-.42.59-2.524.168-3.365-.42-.842-3.533-3.618-4.878-3.365-1.347.252-1.685-1.768-.927-1.684.757.085 1.346-.419 2.778-2.019 1.429-1.598 1.597-2.104.587-2.44-1.01-.337-1.515-1.347.253-1.262 1.767.085 4.88 1.262 5.89.504 1.01-.757 4.208-5.72 5.469-7.487 1.262-1.768-.924-1.936-3.954-1.683-3.03.253-3.703-1.179-6.227-1.347-2.524-.167-7.236.505-7.91 1.262-.673.757 1.263 1.43 1.01 2.272-.252.84-1.766-.589-2.44-.252-.673.337.252 1.43 0 4.374-.252 2.946.59 3.114 1.43 4.208.842 1.094.674 2.525.674 4.375s-1.767 1.767-2.356 2.188c-.59.421 1.515 1.095 1.177 2.272-.334 1.178-2.102-.673-3.113-.338-1.009.338-1.85 3.198-.756 4.125 1.093.925 1.514.756.674 1.851-.842 1.093-1.768 2.69.251 4.29 2.02 1.6 5.722 1.43 7.658 2.693 1.934 1.262-.842.506-.086 1.935.758 1.433-1.261 1.936-1.178 3.031.085 1.092.842.504 1.852-1.348 1.01-1.85 1.767.505 1.682 2.105-.083 1.598-1.515.672-2.608 2.27-1.093 1.6-2.105 1.85-3.702 1.514-1.599-.334-.674 2.272 0 3.704.673 1.43-.17 1.933-2.02 1.43-1.85-.504-2.945-1.684-2.02-3.113.926-1.432 1.6-3.116.507-2.947-1.096.17-3.62-.08-4.376-1.26-.757-1.18.505-.673 2.777-.423 2.271.254.336-1.512 2.018-1.512 1.683 0 2.945.925 4.376-.34 1.43-1.259-.925-3.701-2.104-3.278-1.177.42-3.027.924-3.027-.252 0-1.18 2.018-.338 3.112-.59 1.094-.254-.59-1.765-2.272-1.347-1.682.421-2.86.506-4.207-.925s-3.787-2.272-4.375 1.009c-.59 3.283-2.946 1.515-3.87 2.61-.926 1.095 1.092 1.85 3.365 1.935 2.271.085 3.953 2.187 2.861 2.187-1.093 0-.59 1.599-1.768 1.011-1.177-.589-2.356 0-1.515 1.006.842 1.013-.336 1.43-.252 2.444.084 1.008-1.767.08-3.533-.086-1.767-.167-5.049.42-7.404.926-2.358.506-4.966-.337-5.974-1.432-1.01-1.091-2.356-.923-4.04-.923-1.683 0-1.178-1.6-3.365-1.683-2.187-.085-1.683-1.935-1.935-3.03-.252-1.094-4.627-.757-6.227.252-1.598 1.01-4.712.59-5.553 2.441-.84 1.852.757 1.599 1.683 1.599 1.287 0 1.178-1.514 3.534-1.179 2.356.337 4.039-2.44 5.048-1.43 1.01 1.01-4.04 2.942-6.225 3.281-2.189.338-1.684 2.104.42 5.218 2.103 3.112-.926 1.344-.926 2.86 0 1.513-3.955-.505-2.355-1.01 1.597-.506.84-2.104-.422-3.113-1.261-1.01-2.103 0-1.935-1.093.168-1.095-1.347.082-2.525-.841-1.179-.928-1.766-1.683-3.365-.843-1.598.843-3.45.589-6.983 1.178-3.535.588-10.012.42-11.191-.757-1.178-1.178 3.029-3.282 4.291-2.943 1.223.323.504-1.35-1.429-2.862-1.937-1.515-6.228-2.44-6.144-1.515.084.926-2.44.084-5.553-.503-3.112-.592-3.533-1.687-5.554-1.768-1.95-.084-5.047-.675-7.403-2.524-2.357-1.853-7.91-1.348-8.584.334-.673 1.683-2.523 1.598-4.374 1.598-1.852 0 .836-2.08.168-2.438-.887-.476.084-2.778-1.263-2.944-1.346-.171-2.608 5.552-5.131 5.382-2.525-.164-3.62-6.056-5.722-7.571-2.103-1.515-4.04-1.599-2.273.673 1.768 2.272-1.514.673-1.346 2.188.168 1.515-2.86 3.281-2.776 2.44.085-.84-1.683-1.768-3.702.587-2.018 2.356-3.45 2.02-3.618 1.18-.17-.842-6.143 2.187-5.89 3.197.253 1.01-.926 1.768-2.524 1.684-1.599-.085-.338-1.43.924-2.106 1.42-.754 5.303-3.87 7.32-4.204 2.021-.338 5.893-1.937 5.975-2.862.085-.926-1.935-.169-3.28-.422-1.347-.252-3.703 1.263-5.976 2.274-2.27 1.01-4.879.672-4.205 2.019.672 1.347-2.104-.17-2.693.76-.589.923-1.684-.088-.843-.593.843-.503-2.02-1.43-2.02-.842 0 .59-.503 1.347-2.523 1.347-2.018 0-4.038 1.43-2.691 2.443 1.344 1.008 2.187 1.512 1.512 2.186-.672.672-2.774-1.768-5.72-1.515-2.945.252-8.835-3.28-8.835-4.122 0-.684-4.141-.26-7.01-.567v58.156s1.456 1.085 2.017.412c.562-.672 1.572.224 3.48-.672 1.906-.898 2.578 1.01 2.578 1.904 0 .9 2.693 2.359 3.815 3.816 1.121 1.457 1.682 2.692 2.917 1.906 1.234-.782 3.478-1.234 3.478-2.695 0-1.453 5.16-1.68 5.16.23 0 1.906 5.273 4.15 8.19 9.307 2.917 5.164 2.468 6.285 6.731 7.968 4.263 1.684 4.153 2.58 3.59 4.041-.561 1.455 2.58 2.242.786 3.475-.689.474-1.655 1.161-2.589 1.83.083.74.75 1.215 1.607 1.93 1.01.842-1.85.842-1.01 1.598.842.756-.168 1.937.673 2.86.842.925 2.357.59 3.282-.166.926-.757 1.6.925.841 2.186-.755 1.263.842 2.19 1.6 1.263.757-.927 2.355 1.514 3.112 1.935.758.42 1.515 1.683.253 1.683s-1.094 2.187-.17 2.27c.928.087.842 1.264.842 2.021 0 .756 2.946 1.85 4.04 1.517 1.094-.34 2.103.67 2.608 1.597.505.925 2.525 1.597 3.282 1.008.757-.589 1.262 1.094 1.43 2.272.168 1.178 1.851.505 2.86.422 1.01-.086 1.6 1.345 2.274 1.093 1.48-.555 1.928 2.032 2.91 3.551l104.578-.563s.07-2.597 1.305-1.699c1.234.897.112 2.354 1.57 2.918 1.46.56 2.47 1.458 3.255 1.12.784-.334 2.13-1.458 3.476.116 1.346 1.567 2.356.222 3.14 1.232.787 1.007 2.245 1.796 3.254.562.82-1.002 3.923.209 5.427.762 1.843-1.478 3.303-4.633 4.952-4.633 2.187 0 7.74.503 8.077 3.364.336 2.863 3.703.17 4.04 2.863.284 2.285 2.509 4.089 2.137 5.3.64.399 1.44.933 2.161 1.502 1.068-.359 3.914.098 5.798.77 2.356.839 5.89-1.01 7.067 1.851 1.178 2.86 3.914 5.019 1.346 5.216-2.186.17-5.047-2.86-4.879-1.177.168 1.683-1.178.842-1.178 3.363 0 2.526-1.683 6.062-2.694 5.89-.036-.006-.064-.026-.096-.039-.172.955-.183 2.197.615 2.975 1.281-.93 3.12-2.534 4.699-2.43 2.524.169 3.197 1.684 4.881.509 1.682-1.18 2.018-1.683 2.355-.843.044.106.01.239-.057.377.641-.341 1.093-.67 1.124-.943.047-.423-.068-.989-.215-1.503-1.687.246-2.237.373-2.703-.793-.673-1.682 5.047-3.365 7.741-3.03 2.553.318 4.346-1.472 5.243-.374 1.62-1.453 4.377-3.832 5.078-3.832 1.01 0 13.016-.114 13.016-.114s4.15-2.58 4.71-4.935c.561-2.354 3.253-7.968 4.824-6.73 1.57 1.232 4.937.336 5.047 1.457.105 1.037-1.116 4.85 3.2 10.553 1.518-.96 3.087-1.711 3.982-1.662 1.513.084 3.785-1.935 4.46-3.199.672-1.26 1.597 1.18.25 1.602-1.344.422 1.095 1.427 3.451 1.345 2.356-.083-1.094.84-2.86.757-1.768-.085-2.524.168-4.88 2.526-2.357 2.355-1.767 3.028-.421 4.204 1.347 1.18 3.113.676 4.964-.924 1.851-1.6 1.767-3.199 3.618-3.113 1.85.083 6.647-1.685 8.75-2.355 2.103-.674.757-1.013.757-1.938s3.701-.925 5.05-1.852c1.345-.924-.253-1.682-1.433-1.511zm-277.297-38.384c-3.03 1.611 4.251 9.293 5.771 8.329 1.04-.664-1.8-3.882-1.8-5.866 0-1.987-.945-4.072-3.971-2.463zm304.167 30.921c-.67 1.234-1.68-.898-.222-2.02 1.457-1.12-.227-1.567-1.572-.894-1.346.668-1.01-3.032.225-3.704 1.234-.674-3.03-2.02-3.03-.787 0 1.237-3.03.448-3.367-.674-.335-1.12-2.464-1.454-1.682-2.241.787-.783-2.58-1.235-2.917.111-.335 1.347-1.346-.897.338-2.691 1.683-1.798 1.122-3.364 2.692-4.266 1.57-.897-.113-1.905-1.794-1.231-1.685.672-6.17 6.842-6.17 8.526 0 1.683-.115 3.703-1.683 3.588-1.571-.11-3.368 1.348-2.132 2.246 1.231.897-3.259 3.446-1.123 4.6 1.459.784 3.814-.337 5.834-.114 2.019.226 3.703.336 5.386-.895 1.682-1.236 1.682 1.118 3.477.895 1.795-.223-1.01 1.46-.898 2.692.113 1.235 1.908-.673 3.255-1.345 1.345-.672 3.027 0 2.355 1.123-.672 1.12 3.704 2.242 4.713.447 1.009-1.793-1.01-4.597-1.685-3.366zm-42.688-10.04c.337 1.349 10.099 5.385 10.434 3.536.337-1.851-10.721-4.69-10.434-3.536zM343.093-9c-1.01 2.186 2.188 2.186 2.356 4.712.168 2.523 3.366 3.365 5.723 1.85 2.355-1.514 9.086.449 9.086-1.514 0-1.851-7.067-5.217-9.593-4.713-2.522.507-6.562-2.524-7.572-.335zm21.036 43.752c2.019-.336 1.646-3.45.504-5.048-.84-1.177-3.029-1.348-4.879-1.177-1.852.166-5.048 3.027-3.366 5.89 1.682 2.86 5.721.671 7.74.335zm35.507 8.077c2.02.168 2.357 2.694 5.554 5.386 3.197 2.691 3.534.841 4.037-1.008.507-1.854 4.04-.34 3.872-2.19-.169-1.85 2.863-4.039 4.88-4.878 2.019-.843-1.682-2.862-4.375-2.695-2.693.17-3.197-1.683-3.197-2.861 0-1.178-5.05-4.037-6.731-3.533-1.683.504-4.544-2.187-6.731-2.357-2.189-.166-5.386-1.85-5.05-4.206.338-2.356 4.376.675 5.216-1.178.842-1.85-4.206-.84-4.374-2.188-.17-1.345 1.179-.842 2.187-1.682 1.01-.842-.842-2.525-2.02-3.197-1.177-.672-1.514 1.344-2.692 1.344-1.178 0-.168-1.85.674-3.029.841-1.177-3.87-2.522-5.89-1.85-2.02.673-2.693-.504-2.693-1.85s-3.533 0-4.88 1.009c-1.346 1.01-3.029-1.008-1.346-1.178 1.682-.168 3.701-1.515 3.197-3.029-.504-1.513-4.88-1.683-5.723.168-.84 1.852-4.374-2.019-4.374-3.534 0-1.514-5.384-.168-4.711-2.691.672-2.525-6.227-3.199-8.078-3.199-1.851 0-4.544 1.514-4.208 3.199.336 1.681-2.018 1.008-2.355-.842-.337-1.851-4.88 2.02-6.226 2.02s.84-4.882.167-6.396c-.673-1.515-1.682-2.02-2.692-4.542-1.01-2.525-6.058-1.516-7.405 0-1.345 1.512-5.721.84-8.075 3.196-2.357 2.357.166 4.711 1.177 5.554 1.009.84-3.534 2.187-2.02 3.533 1.514 1.346 3.87.674 4.04 2.86.166 2.188-5.554-.673-6.396-2.524-.842-1.851.335-3.533-.842-4.88-1.178-1.346-.167-3.029 2.02-5.384 2.187-2.355 3.87-2.02 3.87-3.366s-9.423-1.346-14.976 3.7c-5.555 5.05-3.871 11.781-3.534 13.128.336 1.346 5.216.673 8.076 1.514 2.862.842 1.347 2.02-.84 1.685-2.188-.338-5.89-1.011-5.722.504.168 1.514 4.712 4.374 7.405 3.702 2.692-.673 2.692-.673 3.87.84 1.178 1.515 4.375 1.01 7.573 1.18 3.197.167 6.9 1.344 8.414 1.513 1.514.17 3.365-.84 3.87-1.683.505-.84 6.732 1.347 8.583 1.178 1.851-.168.672-1.85-.505-2.356-1.177-.505-.674-2.692.841-1.85 1.515.842 4.039 1.345 4.544 2.86.429 1.288 1.85.673 2.02 1.851.167 1.18 5.553 2.524 5.72 3.872.168 1.346-5.217 2.018-3.701 3.197 1.515 1.177 3.869-1.517 5.89-1.682 2.018-.17 2.018 4.372 3.534 3.702 2.062-.918 3.702.84 5.72 3.701 2.02 2.862-.167 5.554 0 6.562.17 1.01 4.038.673 6.227-.505s4.206 1.347 5.89 2.86c1.683 1.518-6.227 4.04-5.553 2.693.673-1.345-4.712-5.383-9.592-3.534-4.881 1.851-1.515 4.713-1.01 6.396.505 1.684-4.375 3.364-8.92 1.853-4.543-1.518-3.197 1.006-5.047 1.006-1.85 0-3.87 2.86-2.188 4.714 1.682 1.849 5.385.17 8.414.336 3.03.168 3.366 1.01 3.702-.672.336-1.683 3.534-.843 5.722-.337 2.188.503 1.681 3.533 4.374 3.87 2.693.335.506 3.03 2.189 4.882 1.682 1.85 7.067.839 9.086 2.86 2.02 2.017 10.581 6.041 11.78 4.542 1.347-1.68-7.404-9.426-9.927-10.098-2.525-.672 2.523-1.512 5.721 1.011 3.196 2.524 7.908 3.704 10.265.672 2.356-3.028-2.02-2.186-2.02-4.374 0-2.188-1.515-5.218-3.87-5.218-2.357 0-8.413-4.712-6.227-5.719 2.188-1.01-.674-2.358 1.01-4.209 1.683-1.851 3.366 1.683 5.385 1.851zm-55.028 14.81c.337-1.682-5.553-2.358-5.217-4.207.337-1.853-5.552-3.365-7.403-4.376-1.853-1.01-4.712-1.513-4.712-3.533 0-2.019-4.039-.506-4.208 2.523-.168 3.03-1.851 2.355-1.009 5.216.84 2.862-3.703 3.537-3.198 5.05.506 1.514 2.692-.169 4.712-.169 2.02 0-.546 2.816 2.02 3.028 2.02.17 5.553-2.185 6.395-3.532.84-1.347 2.524-1.851 4.878-.17 2.357 1.685 7.405 1.853 7.742.17zm-12.116 9.256c2.692 1.683 6.73-2.862 6.395-4.207-.338-1.347-9.649 2.176-6.395 4.207zm14.81 3.7c1.178-.165 3.532-4.374.503-4.207-3.029.17-2.336 4.47-.504 4.208zM304.892-74.63c2.357-1.515 4.208-.504 2.189.506-2.02 1.008-1.347 1.683 1.514 1.514 2.862-.168-1.178.841-1.178 2.524s3.366.674 3.534 2.356c.167 1.682 7.404 2.355 9.592.337 2.186-2.02 1.346.504 1.178 1.85-.17 1.346 10.266 2.525 10.77.842.505-1.682 2.02-1.009 4.038-.505 2.02.505 11.95-1.85 12.117-3.871.168-2.02 3.197 1.01 0 3.198-3.198 2.187-9.592 1.851-12.453 2.693-2.86.841 1.851 2.86 4.712 5.048 2.86 2.187-3.702 1.01-6.394-1.851-2.693-2.861-8.752-2.861-11.948-2.693-3.197.168-2.19 6.059.166 6.059 2.357 0 4.714.841 7.069 4.542 2.357 3.704 7.405 2.861 7.405 4.544 0 1.682-6.563-1.345-10.266-2.019-3.701-.673-9.592 1.682-9.76 4.376-.17 2.692 5.386 2.355 9.087.168 3.703-2.187 1.01.672-.84 2.355-1.852 1.684 4.374 3.03 4.374 5.049 0 2.02-4.543 1.347-5.048-.505-.506-1.85-2.187-3.702-6.562-3.366-4.376.338-3.198 3.366-.506 3.704 2.692.336 2.861 2.354-.169 2.354-3.027 0-9.863 1.901-7.74 3.872 2.356 2.187 10.938 0 12.452 1.345 1.515 1.347 5.722 1.852 6.731.338 1.011-1.515 4.378-.842 7.743-.842s4.206.504 5.721 1.851c1.514 1.346 4.207.84 6.06-.505 1.85-1.346 1.85-1.346 4.204-1.346 2.357 0 2.861-1.514 1.685-3.365-1.18-1.852-4.208 1.345-4.545 0-.416-1.665-3.197-2.188-7.91-1.515-4.711.674-2.692-3.029.169-2.187 2.86.84 6.731.505 9.93-.338 3.196-.841.671-2.356.671-3.702 0-1.347 4.039-.504 7.07-.504 3.027 0 7.403-4.88 7.57-7.741.169-2.862-6.73-2.187-10.096-2.187-3.366 0 2.188-2.526 8.583-2.189 6.395.336 3.534-2.523 4.71-3.534 1.18-1.009 4.208 1.177 7.407.505 3.196-.673 1.008-3.366 3.196-3.366 1.551 0 5.05-2.355 11.95-6.226 6.897-3.87 12.283-3.198 12.619-5.384.338-2.189-9.592 0-11.275-.675-1.682-.673 6.9-2.523 8.92-2.018 2.019.504 4.713 0 11.612-3.367 6.9-3.364 3.87-4.207 1.01-3.7-2.862.504-6.06-.507-5.89-2.357.165-1.851-4.208-.17-4.377-1.177-.168-1.01-4.207-.506-8.583 1.177-4.374 1.682-.336-1.683 1.517-2.356 1.85-.674-11.109 0-13.296-1.514-2.187-1.515-4.713 2.523-6.731.504-2.02-2.02-7.236-.336-6.563 1.179.673 1.512-.84 1.512-2.861-.17-2.02-1.681-5.889.17-9.423-.336-3.534-.505-2.02 2.861-5.89 1.18-3.87-1.685-8.077-.843-6.899-.338 1.178.504-.337 1.514-2.02 1.01-1.684-.506-3.197.166-2.357 1.85.843 1.684-6.227-.505-6.227 1.348 0 1.85-2.522 2.86-4.542 1.178-2.02-1.685-8.415-2.189-6.563-.674 1.851 1.514-5.721.674-3.703 2.187 2.02 1.514-2.524 2.693-2.524 1.85 0-.841-4.208-2.355-5.89-.841-1.681 1.515-2.187 3.367-3.028 2.356-.842-1.008-4.544-.672-8.079.673-3.533 1.348.506 2.356 2.861.842zm-20.36 16.66c2.48 1.243 1.008 2.862 3.7 4.04 2.694 1.177 10.434-1.516 11.107.336.673 1.85-7.91 2.019-6.732 3.197 1.178 1.177 6.06 3.03 5.386 4.04-.674 1.009 8.077 3.869 8.918 2.523.843-1.346 3.199-1.01 5.385-.168 2.19.84 2.356-5.218 3.871-4.208 1.515 1.01 1.346-2.187 3.87-3.197 2.526-1.01 6.162-1.02 6.397-2.187.167-.842-.675-2.02-3.705-1.683-3.026.336-5.047-.842-3.7-2.524 1.345-1.683-3.366-2.188-1.684-3.534 1.683-1.347-3.197-2.693-2.693-.674.506 2.02-3.027.168-3.534-1.683-.504-1.851-7.403-2.523-11.946-6.563-4.544-4.038-9.256-1.346-6.565-.842 2.694.506 2.525 1.853.34 1.685-2.19-.17-6.061.168-2.526 1.514 3.533 1.347-.337 1.85-3.198 1.85-2.862 0-3.029 3.703.674 4.207 3.702.506 1.01 2.693-2.02 1.852-3.028-.842-4.038.673-1.345 2.019zm24.23 18.848c-3.028-1.515-6.83 1.688-3.7 2.86 2.692 1.009 6.73-1.346 3.7-2.86zm-8.582 19.857c1.178 3.365 2.526 1.01 4.376 2.356 1.851 1.345 4.712 2.187 6.227.841 1.513-1.345 2.186-2.356 2.692-1.177.82 1.914 4.544 2.187 12.62 2.355 8.079.168 6.06-3.365 8.416-2.02 2.354 1.346 7.741 1.346 10.096.842 2.357-.505 3.535-4.206 3.365-6.057-.168-1.852-18.174-3.365-21.371-1.514-3.198 1.85-8.246-.843-10.771.504-2.522 1.346-1.682-1.683-6.226-1.853-4.542-.166.336-2.523 1.18-3.534.84-1.008-6.9-3.7-10.098-3.027-3.197.672-5.05-1.01-8.079-2.357-3.028-1.347-11.252-1.025-9.59 1.347 1.177 1.682 10.937 5.216 11.947 3.534 1.01-1.683 3.534 2.02 5.048 3.87 1.515 1.85-1.01 2.524.168 5.89zM272.751 7.66c3.703 2.524 2.525-2.02 6.732-1.85 4.208.167 4.376-6.732 5.05-9.257.67-2.524-3.367-2.355-2.357-.504 1.008 1.85-.17 3.701-.505 1.514-.338-2.187-3.533-.167-4.712-1.85-1.178-1.684 3.702-1.851 4.881-4.04 1.178-2.187-3.872-1.851-2.693-3.534 1.178-1.683-7.405.17-4.88 1.179 2.524 1.01.167 2.355-2.188.672-2.356-1.682-8.882 1.133-6.564 3.03 1.852 1.513 7.405-1.01 4.208 3.365-3.198 4.376-4.542-1.179-7.573-.672-3.03.505-1.683 4.205 2.861 5.552 4.544 1.346 4.039 3.87 7.74 6.395zm21.54-23.56c3.03-.168 1.516-3.87-1.85-6.395-3.366-2.523-10.928 2.665-9.591 3.703 1.512 1.179 8.413 2.862 11.442 2.692zm1.852-24.57c-.336-1.009-13.095.53-11.106 2.023 3.365 2.522 11.443-1.011 11.106-2.022zm-13.63-.84c2.524 0 4.542-.337 6.73-1.178 2.188-.842-1.177-.842.337-2.86 1.515-2.02-3.703-2.189-4.039-1.515-.337.672-6.9-4.039-7.909-2.526-1.01 1.515 2.356 8.08 4.88 8.08zm-7.07 9.929c-.167 1.681-4.037-.336-7.067-1.514-3.03-1.178-1.177 2.356 1.18 4.373 2.355 2.02-1.18 1.011-4.375-1.178-3.199-2.186-2.864 1.517-1.349 2.695 1.514 1.177-.335 2.86-2.356.166-2.018-2.691-3.028-5.552-6.226-5.72-3.197-.17-1.74 3.107-.504 4.712 1.683 2.187 3.366 2.693 6.059 4.208 2.692 1.514 7.067-.674 9.086-.17 2.02.505-2.188 3.03-.841 4.712 1.345 1.684 5.048.505 7.909.337 2.86-.168 1.515-1.852 3.197-3.03 1.684-1.178-1.682-1.009-.337-3.87 1.347-2.862-4.207-7.404-4.375-5.721zM256.43-19.603c1.177-1.346-2.524-4.207-3.535-1.851-1.01 2.356 2.335 3.221 3.535 1.851zm19.015-38.199c1.179-2.02-7.097-3.605-5.049-1.851 1.178 1.01 3.872 3.87 5.049 1.851zm-21.877 22.044c1.347-1.682-5.385-7.068-5.72-4.543-.337 2.525 4.29 6.331 5.72 4.543zm-1.178-14.135c2.02-1.347 5.723.84 5.05 2.355-.674 1.515-6.498-.304-6.058 1.011.168.504.84 2.524 4.878 1.346 4.039-1.178 7.405-.336 10.1 1.85 2.69 2.189 5.214 3.03 7.065.842 1.852-2.188-2.355-2.524-1.513-4.206.84-1.683-2.693-2.695-4.544-2.695-1.852 0-2.524-3.364-4.039-2.692-1.515.674-2.523 1.852-2.523-.336 0-2.187-8.752-2.356-10.94-1.513-2.187.841.506 5.384 2.524 4.038zm-28.103 5.216c1.684.674 3.367-1.515 4.544-.504 1.178 1.01 6.395 1.85 6.395-.842s-6.563-3.03-8.246-2.019c-1.683 1.009-9.423 1.347-7.235 3.03 1.34 1.033 2.86-.337 4.542.335zm8.247 3.197c2.187-.336 1.179-2.02-2.356-1.514-3.534.505-9.592.5-9.592 3.03 0 2.018 1.178 3.028 5.047 3.364 3.872.338 7.238-3.365 5.387-3.365-1.851 0-.674-1.177 1.514-1.515zm-13.968.842c.841-2.02-5.574-1.685-5.047-1.01 1.178 1.515 4.204 3.03 5.047 1.01zm-8.75 12.115c-2.356.17-2.188 2.526.505 2.526 2.691 0 3.534.842-.336.672-3.87-.166-5.555 3.199-2.862 2.525 2.692-.673 5.89-.673 3.87 0-2.02.674-7.52 1.137-6.731 2.187.505.674 2.692.506 4.88 1.347 2.188.84 3.535 1.346 5.217-.505 1.682-1.851 3.87-3.702 3.03-1.178-.842 2.524 2.692.674 7.235.504 4.545-.168-.84 2.693-5.553 3.03-4.712.337-3.869 2.692-.168 3.534 3.703.841 11.611-2.356 13.461-4.207 1.852-1.851 3.535 1.01 5.386-.337 1.851-1.346 5.385.169 8.582-.504 3.199-.674 3.703-6.732 1.347-7.741-2.355-1.01-2.355 1.179-4.206 1.515-1.851.336-2.862-2.02-4.376-3.535-1.515-1.515-.506-4.375-2.693-4.04-2.17.335-6.9 3.872-4.04 4.207 2.862.339 1.852 1.853.336 2.526-1.512.672 3.536 1.85 2.863 2.861-.673 1.01-8.415.167-8.75-1.515-.338-1.683-6.395-4.712-8.92-4.039-2.524.673-1.513-2.019-4.038-2.188-2.525-.167-1.684 2.188-4.04 2.355zm-26.252.843c1.179.505 0 2.86 1.346 2.189 1.347-.675 1.683-.843 2.692-.506 1.82.607 2.186-1.01 3.03-1.851.84-.842.505 3.029 2.692 3.029 1.851 0 1.515-4.039 3.197-2.861 1.683 1.176 2.187-.504 2.525-1.683.336-1.177.336-3.197 2.187-3.533 1.851-.338.337 1.851 1.178 3.365 1.225 2.205 3.366.168 3.534-.842.17-1.01 3.197-.336 3.029-1.514-.168-1.178.841-1.515 0-2.862-.84-1.344 1.347-1.01 2.356-2.018 1.01-1.01-1.345-.169-3.028-1.681-1.684-1.517-2.357.502-2.357 1.512s-3.197.17-5.048-.504-4.208 2.186-6.9 3.533c-2.694 1.347-2.86 3.702-5.385 3.534-2.525-.167-6.226 2.189-5.048 2.693zm13.966 4.71c3.03.338 6.058-2.355 5.89-3.87-.168-1.513-7.394 3.707-5.89 3.87zm63.947 41.398c1.01-1.177 5.217 2.355 5.386-.167.168-2.525-4.712-3.704-6.73-5.048-2.02-1.347-2.86-.674-6.06-3.03-3.197-2.356.842-3.535-1.514-5.384-2.355-1.852-3.197-6.901-1.515-8.582 1.683-1.685 3.535-4.209.506-5.386-3.03-1.178-7.91 1.01-7.405 1.681.505.674 4.712 3.03 4.712 4.04 0 1.01-3.87-2.86-5.217-2.02-1.346.843-2.86-1.682-4.039 0-1.178 1.685 1.515 7.574 2.523 9.256 1.011 1.683-1.008 1.683-2.355 2.02-1.346.338-1.514-4.713-2.86-6.563-1.346-1.85-6.73-4.04-7.068-2.693-.336 1.346 3.365 1.346 2.86 3.197-.505 1.853-2.523-1.176-4.375.338-1.851 1.515-1.514.505-1.178-1.01.338-1.515-2.693-3.197-6.058-2.86-3.367.335-1.515 2.692-2.524 3.532-1.009.843-6.058-.504-2.861-1.176 3.198-.675 1.852-2.525.675-4.376-1.178-1.851-4.376.335-9.594 2.187-5.216 1.851-7.572 3.87-6.9 4.039.675.169.843 1.01-1.178 2.692-2.02 1.684 0 3.197 1.853 3.197 1.85 0 .22 1.483 1.513 1.852 1.178.338 7.237-2.356 8.919-1.178 1.684 1.178-9.928 1.851-9.928 3.872 0 2.018 6.395 3.195 11.106 2.355 4.713-.843 12.958.673 12.958 1.851s-5.554.84-9.76.672c-4.207-.166-11.442 1.178-11.107 2.525.376 1.506.841 1.515 5.217 3.533 4.376 2.02 8.919-1.01 8.75 1.851-.167 2.862 2.357 3.535 8.246 3.703 5.89.169 8.582-2.692 11.444-2.524 2.861.168 4.205-.337 5.554-2.355 1.344-2.02 2.524-.843 2.86.168.335 1.008 4.04.839 4.88 1.68 2.146 2.148 9.255 1.518 11.948.17 2.692-1.346-1.178-5.048-2.525-3.366-1.345 1.683-2.523.673-2.86-.167-.337-.843 2.692-1.347 3.7-2.526zM177.336 4.63c3.03.674 3.358 6.058 5.385 6.058 1.347 0 .336-1.683 2.525-1.683 2.187 0 1.682-1.178 3.702-1.01 2.02.169 3.703-.505 3.703-2.86 0-2.356 1.515-3.197 3.533-3.703 2.019-.504.168-3.029 3.029-3.702 2.86-.672 10.77-4.039 12.116-5.048 1.347-1.01-1.683-2.356-4.712-4.207-3.03-1.85-5.385-2.356-7.74-.841-2.357 1.515-.506-1.683-2.357-.84-1.85.84-6.9-1.348-7.572-2.19-.673-.84-9.761 1.85-11.948 1.85-2.188 0 .168 2.357 1.683 3.535 1.514 1.179-3.703 4.88-2.693 5.723 1.01.84-1.01 3.028-3.365 5.72-2.358 2.693 1.683 2.525 4.71 3.198zm2.86 133.702c-1.092-1.18-3.953-.928-4.374-2.022-.42-1.092-3.029-5.044-4.46-4.962-1.431.083-3.28.166-4.964-1.093-1.682-1.264-2.776-1.347-3.954-.59-1.178.758 1.261.926 1.178 1.766-.084.84.755 1.347 1.766 1.179 1.01-.167 1.599 1.936 2.608 2.02 1.01.085 1.346 1.68 2.524 1.68s1.43 1.348 2.02 2.105c.59.76 1.935.085 1.935.842 0 .678 1.346 1.291 1.686 2.142 2.304.275 4.277.491 5.993.015.018-.53.153-1.112.398-1.57.589-1.09-1.262-.335-2.355-1.512z" stroke="#999" stroke-width=".5"/><path d="M393.129 147.278c-.11-1.121-3.477-.225-5.049-1.458-1.57-1.238-4.263 4.376-4.822 6.732-.562 2.355-4.712 4.934-4.712 4.934s-12.005.114-13.015.114c-.7 0-3.458 2.378-5.079 3.833a1.5 1.5 0 0 1 .143.204c1.213 2.189-3.197 3.534-7.404 3.704a27.614 27.614 0 0 0-3.02.288c.148.515.262 1.08.216 1.504-.03.27-.484.601-1.124.943-.645 1.304-5.806 3.823-8.694 5.344-3.197 1.682-7.573.84-7.573-1.686 0-2.522 2.357-2.018 2.861-.839.189.44.758.12 1.527-.432-.798-.779-.785-2.02-.613-2.976-.966-.422.537-4.189-1.418-4.837-2.02-.676-4.375 2.859-4.04.669.338-2.186 3.367-4.039 1.515-6.897-1.85-2.86-5.216-2.86-5.89-.675-.674 2.19-3.028 1.18-3.87 2.862-.841 1.683-1.683 5.386-1.008 8.08.67 2.691-.17 4.036-2.693 5.55-2.525 1.515-3.846-2.313-2.862-7.233.674-3.369 2.525-6.562.842-6.562-1.684 0 2.187-4.042 5.721-4.881 3.535-.845 7.91-.506 7.91-1.517 0-.204.16-.341.429-.432a24.39 24.39 0 0 0-2.163-1.504 1.107 1.107 0 0 1-.454.59c-1.386.966-1.01-1.516-3.534-1.516-2.525 0-5.049 2.355-7.068 1.348-2.02-1.01-1.01-2.356-2.86-2.356-1.852 0 1.346-3.533-1.348-2.02-2.691 1.517-6.73 5.218-8.58 3.535-1.853-1.683-3.535.505-4.882-.84-1.346-1.35 4.712-5.05 7.573-4.88.704.038 1.347-.27 1.948-.755-1.503-.551-4.606-1.763-5.426-.76-1.01 1.232-2.467.443-3.254-.562-.785-1.011-1.794.333-3.14-1.233-1.346-1.573-2.693-.45-3.478-.116-.784.338-1.795-.56-3.253-1.12-1.459-.563-.338-2.02-1.572-2.918-1.234-.898-1.303 1.698-1.303 1.698l-104.58.563c.118.179.237.348.372.49 1.261 1.346.253 2.353.672 3.956.42 1.598.085 3.869-1.178 3.869-1.26 0-1.43-1.43-.505-1.937.926-.503.422-2.356-.503-2.356-.541 0-.758-.632-.736-1.375-1.717.475-3.691.258-5.994-.017a1.1 1.1 0 0 1 .082.3c.084 1.009.588 3.28 1.935 5.046 1.346 1.768.42 2.862 1.682 3.536 1.263.672 1.177 1.43 0 1.26-1.178-.166-.336.927-.756 3.453-.422 2.525-.337 7.738-.59 9.34-.253 1.596-2.104 4.207-1.01 5.89 1.093 1.68 1.852 4.036 1.263 6.14-.59 2.105-.506 3.365.42 4.965.925 1.6.169 4.374 1.178 4.963 1.01.592 1.936 1.768 2.861 3.28.926 1.518 1.766.593 1.936 2.106.168 1.515.168 1.768 1.514 2.355 1.347.59.504 2.103.504 2.946 0 .84 1.768 2.356 3.955 4.29 2.187 1.935.337 3.534 1.936 3.534 1.598 0 3.113.926 4.712 1.937 1.598 1.01 2.102.418 3.197.672 1.093.252 3.113 2.608 3.534 4.207.198.749.455 1.542.853 2.394l8.724-1.145s2.696 1.89 4.224 2.248c1.53.358 9.8 3.414 9.8 3.414l10.785-.092 1.259-1.616h5.933s3.774 3.686 4.314 3.868c.539.177 2.427 1.884 2.427 2.966 0 1.076.45 1.977 1.349 2.425.898.451 3.956 2.427 4.404 2.246.449-.176 1.35-3.595 2.966-3.502 1.619.087 6.023 1.344 6.743 3.861.718 2.52 2.875 4.588 3.594 5.124.719.539.36 2.068.9 2.879.538.81.449 2.337 1.077 2.337.631 0 3.867 1.978 5.305 1.887.428-.024.995.232 1.578.59.174-3.006-2.919-3.512-1.098-4.893 2.104-1.6-.084-2.946.926-3.62 1.01-.672 2.777-1.344 2.777-2.355 0-1.009.925-1.009 2.271-.84 1.347.166 3.872-2.19 3.702-3.115-.166-.927.253-1.092 1.852-.757 1.598.337 1.347-1.853 2.355-1.514 1.01.336 1.852.926 1.936.167.084-.758 1.094-.588 1.85.42.758 1.011 2.945 1.264 3.113.086.17-1.177 1.432 0 2.525 1.178 1.094 1.178 1.598.84 3.198.926 1.599.085 1.599-.338 1.682-1.347.085-1.008 1.768 2.186 3.367 2.356 1.598.172.335-1.009-.842-1.935-1.178-.925.252-1.348-.757-2.102-1.01-.76 1.26-1.77 3.281-1.682 2.02.08 1.935.589 2.693-.592.757-1.179 1.514 0 1.514 1.009 0 1.012 3.281-.588 5.048-.588 1.768 0 3.366 1.513 3.534 2.526.168 1.008 1.347 1.513 2.61.42 1.26-1.093 2.355-2.358 3.533-1.18 1.177 1.18 2.355 2.777 3.787 4.207 1.43 1.43-.674 3.2.083 4.291.758 1.095-.083 2.611 1.599 3.789 1.683 1.177.169 3.616 1.515 3.955 1.347.336 2.438 2.437 2.608 3.279.168.841 2.693 1.937 2.86.505.169-1.429 1.516-3.113 1.684-4.458.168-1.345-1.01-6.143-2.104-7.657-1.095-1.514.253-1.853-1.095-3.615-1.345-1.772-2.187-4.884-2.102-7.408.083-2.524 3.029-6.648 4.46-7.911 1.43-1.26 3.028-.588 3.365-1.935.336-1.347 2.103-3.027 3.113-3.027 1.01 0 2.104.251 2.272-.84.168-1.095 1.85-2.443 4.038-2.777 2.189-.338.926-1.519.337-2.524-.588-1.011.506-2.021.925-1.349.421.674 1.767.757 2.61.168.84-.587 2.777-2.186.925-2.27-1.853-.085-2.272-.84-1.18-1.264 1.095-.418.17-2.437-1.344-2.607-1.516-.17-1.01-.923-.084-1.854.925-.923-1.346-2.436-2.44-3.196-1.095-.757.67-1.176 1.513-1.345.843-.168.17-4.04.59-4.963.421-.925 1.85-.925 1.262 0-.59.923-1.43 2.438-.336 3.7 1.094 1.263 1.429 2.608 1.01 4.545-.422 1.936.419 1.43 1.681-1.096 1.262-2.523 1.43-4.71.59-4.963-.841-.25-.758-2.775.168-1.599.925 1.18 1.263 1.348 2.693-.17 1.429-1.513 2.944-4.117 2.018-4.709-.925-.59.422-1.18 2.104-1.093 1.683.083 5.3-1.013 5.553-1.516.821-1.642-5.806.757-5.806-.17 0-.926 4.21-1.85 6.142-1.934 1.936-.082 1.011-2.691 1.853-1.6.84 1.095 2.103.927 3.196.253 1.094-.672.252-2.608-1.009-2.943-1.262-.337.925-1.179.504-1.936-.42-.757.842-3.788 2.44-4.123 1.6-.335.842-1.347 2.189-1.347 1.346 0 1.598-1.6 2.776-2.775 1.178-1.179 2.861 1.849 4.712.167.757-.69 1.783-1.455 2.834-2.124-4.317-5.704-3.094-9.515-3.2-10.553M16.796 79.096c-.167-1.347-3.786-.085-3.365 1.177.42 1.26 3.837 2.086 5.3 1.599 1.264-.422 1.684-1.768.759-2.61-.926-.84-2.525 1.18-2.694-.166m53.598 9.925c.085-.925-1.262-.84-2.945 1.096-1.682 1.934-3.111 2.944-3.365 3.871-.253.925-2.189-.169-2.778 1.009-.588 1.179.417 3.79 1.6 2.948 1.178-.842 1.261 0 2.02 0 .756 0 4.206-2.357 4.963-3.538.757-1.178-1.347-1.513-1.43-2.271-.084-.757 1.767-.757 2.694-1.262.924-.506-.843-.927-.759-1.853m-42.66 19.776c-1.85-.673-6.723 2.287-5.047 2.526 1.178.168 1.683-1.009 3.029-1.009 1.347 0 3.871-.844 2.019-1.517m-14.304 7.572c2.02-.84 2.86-1.848 2.02-2.858-.842-1.01-3.574 3.506-2.02 2.858m141.973-11.944c.562-1.462.674-2.358-3.59-4.043-4.264-1.683-3.813-2.804-6.732-7.966-2.916-5.159-8.189-7.403-8.189-9.309 0-1.908-5.16-1.683-5.16-.228 0 1.46-2.243 1.911-3.477 2.694-1.236.786-1.796-.448-2.919-1.905-1.121-1.459-3.814-2.918-3.814-3.818 0-.893-.672-2.802-2.578-1.904-1.91.898-2.918 0-3.48.672-.56.675-2.017-.411-2.017-.411V20.05c-.674-.072-1.276-.183-1.741-.36-2.44-.925-6.058-2.607-7.993-2.188-1.934.421-5.806.925-7.153.253-1.344-.672-3.197-1.262-5.973-.843-2.776.424-4.544-1.513-8.078-2.355-3.535-.842-8.497.253-9.674.674-1.178.419-.928-1.263-2.442-1.093-1.515.168-.337-.674-1.179-1.936-.84-1.263-5.048-.085-6.562.083-1.515.168-1.935-.757-1.85-1.514.084-.758-1.348-.504-1.937.504-.588 1.01-2.27 1.178-2.944.507-.673-.675 1.43-.926 1.515-1.684.084-.757-2.188-1.178-3.03-1.43-.84-.253-2.187.84-3.955 2.44-1.766 1.598-4.375 1.43-5.973 1.262-1.598-.168-3.618.168-3.534 1.094.084.926 2.02.842.841 2.02-1.177 1.177-1.598-1.6-2.777-.338-1.178 1.262-4.71 1.178-5.554 1.01-.84-.169-3.616 2.859-4.459 3.702-.842.843.674 1.6-1.597 4.04-2.272 2.44-8.331 1.935-9.592 1.935-1.263 0-.338 1.43-1.011 2.356-.672.926.758 1.768 4.208 2.691 3.45.925 5.806 5.468 6.225 6.563.423 1.095 4.714-.083 6.396.171 1.683.252-.17 2.607 1.262 3.28 1.43.674 3.619-.337 4.038.842.423 1.176-2.86 0-4.542 1.261-1.683 1.26-2.525 1.854-3.198.926-.674-.926-3.45-.338-4.88-.168-1.43.168-.084-1.769 0-2.61.083-.842-1.935-1.43-4.712.169-2.778 1.598-1.768 1.01-2.103 2.27-.336 1.267-1.515-.756-3.282.34-1.767 1.092-4.627 1.85-5.134 2.943-.505 1.093 3.787 1.85 5.47 2.19 1.684.336-2.019 1.428-.673 1.848 1.347.422.758 1.685 2.86 2.778 2.103 1.093 6.815 0 8.079 0 1.262 0 2.44 1.517 3.448.421 1.011-1.094 4.797-4.123 6.733-2.355 1.934 1.768-2.104 1.512-1.094 2.607 1.01 1.094 2.272 3.702.42 5.05-1.85 1.345-3.617.42-4.628.335-1.009-.083-.42 1.851-2.02 3.111-1.597 1.264-2.776-1.342-4.795-1.342-2.02 0-1.597 2.606-1.515 3.867.085 1.263-3.028-.252-3.786 2.777-.758 3.032-3.955.422-1.85 3.366 2.102 2.945 1.767 1.095 3.45 2.272 1.682 1.178-1.852 3.283-.17 3.618 1.684.338 3.535 3.368 4.713 4.46 1.177 1.095 2.691-.59 4.459-.672 1.768-.084.925-2.524 1.935-1.598 1.01.925 2.44 3.615 1.515 4.29-.925.673-.17 2.775-.337 3.786-.168 1.01 3.87.674 4.124-.506.252-1.177 3.45-1.515 5.217.422 1.767 1.936 2.355 2.27 2.355.758 0-1.517 1.514-3.199 1.598-1.938.084 1.264 1.515 1.599 4.123.42 2.61-1.177 1.43.087.084 1.769-1.857 2.324 0 5.721-1.345 6.056-1.347.339-2.44 3.79-4.629 4.041-2.186.254-5.89 4.379-6.395 5.05-.504.676-5.216-1.345-5.888.588-.674 1.935-3.523 3.377-2.777 4.125.503.505 4.375-1.43 4.543-2.441.168-1.009.674-.84 1.346-.083.673.757 2.356-.334 3.113-1.01.757-.673 2.02-.419 2.777-.338.758.085 1.095-.925 3.366-1.347 2.27-.417 1.766-1.093 2.27-2.27.507-1.178 5.891-3.703 6.901-3.956 1.01-.252.42-1.933 1.515-2.02 1.094-.084 2.776-1.43 4.207-2.61 1.43-1.176 1.766-.672 2.86-1.093 1.095-.42.253-2.606 1.346-2.777 1.095-.166 1.936-1.008 1.936-1.936 0-.925-2.776-.925-3.029-1.512-.253-.59 2.188-2.78 3.114-2.694.925.087 2.44-.925 2.522-2.271.085-1.345 1.433-1.599 2.525-2.776 1.094-1.18.841-2.188 1.935-2.272 1.095-.085 2.104-1.599 3.282-2.27 1.178-.676 0 .837 2.272.925 2.272.082 1.767 2.186.083 1.43-1.681-.759-2.438-.675-3.953.756-1.516 1.43-.337 1.852-1.516 3.45-1.177 1.597-1.262 2.607.254 2.776 1.514.167.084 1.262-1.347 1.683-1.431.421-.419 1.263 1.514 1.263 1.936 0 4.796-2.78 7.488-4.125 2.693-1.343 4.714 0 5.47-.251.757-.25-.841-1.514.085-1.934.925-.422-1.094-.676-1.683-2.274-.589-1.596.925-.588 1.262-1.849.337-1.263 1.263-.76 2.103-.17.842.59 2.02-.59 2.778 1.01.756 1.6 1.598-.42 2.944.673 1.347 1.095-.253.927-1.683 1.262-1.43.338-.673 2.273.42 1.348 1.095-.927 2.02-1.515 3.03-.587 1.009.924 1.43.503 2.272-.34.84-.84.84.085.84.757 0 .673 1.767.923 4.292 1.346 2.525.42 7.069-.169 8.246-.25 1.178-.084.758 1.765 3.367 2.269 2.606.508 3.281-2.607 4.626-1.511 1.347 1.09 0 1.51-.756 2.355-.76.839.84.924 1.85 1.344 1.01.422 3.366 1.095 4.46 2.186 1.093 1.096 1.767 2.274 4.458 3.62 2.693 1.346.086-3.367 2.189-1.852s1.347.085 3.029 1.599c1.683 1.516 1.094-.674.336-3.197-.757-2.525.758-.842 1.515.336.757 1.178.757 3.45.253 4.965-.506 1.515-3.03.252-2.778-.588.253-.843-2.524-.504-2.608.672-.083 1.178 1.767 3.452 3.115 3.705 1.345.253.335 2.357 1.177 2.608 1.155.345 1.094 2.524 1.767 2.186.673-.333.42-2.943-.337-4.119-.757-1.179-.42-2.866.589-2.527 1.01.335 0 2.105.505 2.692.504.59 1.093-.587 2.27-1.26 1.18-.677-.503-2.611-.081-3.622.42-1.01 1.766.841 2.27 2.61.505 1.766-1.262 1.685-1.262 2.609 0 .928-1.598.505-2.104 1.01-.505.506-.253 3.87.421 3.956.675.083 1.094-2.778 1.516-1.349.42 1.432 2.018-1.85 2.44-.503.419 1.347 2.44 2.862 3.197 2.525.756-.337-.337-1.768-1.515-1.852-1.179-.085-1.01-2.02.084-2.104 1.094-.082 3.028 2.778 2.945 3.787-.083 1.008-1.01.925-1.937 1.937-.924 1.01-2.186-1.685-3.28-1.6-1.095.084 0 1.765.505 2.943.504 1.18-1.347 2.777.083 3.704 1.43.926 1.011-.588 1.263-1.26.251-.675 1.347.165 2.104.757.707.545.841-1.348.841-2.105 0-.757 1.263-.339 1.936.673.672 1.008.757-1.094 1.767-.927 1.01.17.336 1.767.336 2.694 0 .925 1.766-.759 1.598.252a1.446 1.446 0 0 0-.007.426c.932-.668 1.9-1.357 2.588-1.83 1.795-1.232-1.347-2.02-.786-3.474" fill="#F0F0F0"/><path d="M393.129 147.278c-.11-1.121-3.477-.225-5.049-1.458-1.57-1.238-4.263 4.376-4.822 6.732-.562 2.355-4.712 4.934-4.712 4.934s-12.005.114-13.015.114c-.7 0-3.458 2.378-5.079 3.833a1.5 1.5 0 0 1 .143.204c1.213 2.189-3.197 3.534-7.404 3.704a27.614 27.614 0 0 0-3.02.288c.148.515.262 1.08.216 1.504-.03.27-.484.601-1.124.943-.645 1.304-5.806 3.823-8.694 5.344-3.197 1.682-7.573.84-7.573-1.686 0-2.522 2.357-2.018 2.861-.839.189.44.758.12 1.527-.432-.798-.779-.785-2.02-.613-2.976-.966-.422.537-4.189-1.418-4.837-2.02-.676-4.375 2.859-4.04.669.338-2.186 3.367-4.039 1.515-6.897-1.85-2.86-5.216-2.86-5.89-.675-.674 2.19-3.028 1.18-3.87 2.862-.841 1.683-1.683 5.386-1.008 8.08.67 2.691-.17 4.036-2.693 5.55-2.525 1.515-3.846-2.313-2.862-7.233.674-3.369 2.525-6.562.842-6.562-1.684 0 2.187-4.042 5.721-4.881 3.535-.845 7.91-.506 7.91-1.517 0-.204.16-.341.429-.432a24.39 24.39 0 0 0-2.163-1.504 1.107 1.107 0 0 1-.454.59c-1.386.966-1.01-1.516-3.534-1.516-2.525 0-5.049 2.355-7.068 1.348-2.02-1.01-1.01-2.356-2.86-2.356-1.852 0 1.346-3.533-1.348-2.02-2.691 1.517-6.73 5.218-8.58 3.535-1.853-1.683-3.535.505-4.882-.84-1.346-1.35 4.712-5.05 7.573-4.88.704.038 1.347-.27 1.948-.755-1.503-.551-4.606-1.763-5.426-.76-1.01 1.232-2.467.443-3.254-.562-.785-1.011-1.794.333-3.14-1.233-1.346-1.573-2.693-.45-3.478-.116-.784.338-1.795-.56-3.253-1.12-1.459-.563-.338-2.02-1.572-2.918-1.234-.898-1.303 1.698-1.303 1.698l-104.58.563c.118.179.237.348.372.49 1.261 1.346.253 2.353.672 3.956.42 1.598.085 3.869-1.178 3.869-1.26 0-1.43-1.43-.505-1.937.926-.503.422-2.356-.503-2.356-.541 0-.758-.632-.736-1.375-1.717.475-3.691.258-5.994-.017a1.1 1.1 0 0 1 .082.3c.084 1.009.588 3.28 1.935 5.046 1.346 1.768.42 2.862 1.682 3.536 1.263.672 1.177 1.43 0 1.26-1.178-.166-.336.927-.756 3.453-.422 2.525-.337 7.738-.59 9.34-.253 1.596-2.104 4.207-1.01 5.89 1.093 1.68 1.852 4.036 1.263 6.14-.59 2.105-.506 3.365.42 4.965.925 1.6.169 4.374 1.178 4.963 1.01.592 1.936 1.768 2.861 3.28.926 1.518 1.766.593 1.936 2.106.168 1.515.168 1.768 1.514 2.355 1.347.59.504 2.103.504 2.946 0 .84 1.768 2.356 3.955 4.29 2.187 1.935.337 3.534 1.936 3.534 1.598 0 3.113.926 4.712 1.937 1.598 1.01 2.102.418 3.197.672 1.093.252 3.113 2.608 3.534 4.207.198.749.455 1.542.853 2.394l8.724-1.145s2.696 1.89 4.224 2.248c1.53.358 9.8 3.414 9.8 3.414l10.785-.092 1.259-1.616h5.933s3.774 3.686 4.314 3.868c.539.177 2.427 1.884 2.427 2.966 0 1.076.45 1.977 1.349 2.425.898.451 3.956 2.427 4.404 2.246.449-.176 1.35-3.595 2.966-3.502 1.619.087 6.023 1.344 6.743 3.861.718 2.52 2.875 4.588 3.594 5.124.719.539.36 2.068.9 2.879.538.81.449 2.337 1.077 2.337.631 0 3.867 1.978 5.305 1.887.428-.024.995.232 1.578.59.174-3.006-2.919-3.512-1.098-4.893 2.104-1.6-.084-2.946.926-3.62 1.01-.672 2.777-1.344 2.777-2.355 0-1.009.925-1.009 2.271-.84 1.347.166 3.872-2.19 3.702-3.115-.166-.927.253-1.092 1.852-.757 1.598.337 1.347-1.853 2.355-1.514 1.01.336 1.852.926 1.936.167.084-.758 1.094-.588 1.85.42.758 1.011 2.945 1.264 3.113.086.17-1.177 1.432 0 2.525 1.178 1.094 1.178 1.598.84 3.198.926 1.599.085 1.599-.338 1.682-1.347.085-1.008 1.768 2.186 3.367 2.356 1.598.172.335-1.009-.842-1.935-1.178-.925.252-1.348-.757-2.102-1.01-.76 1.26-1.77 3.281-1.682 2.02.08 1.935.589 2.693-.592.757-1.179 1.514 0 1.514 1.009 0 1.012 3.281-.588 5.048-.588 1.768 0 3.366 1.513 3.534 2.526.168 1.008 1.347 1.513 2.61.42 1.26-1.093 2.355-2.358 3.533-1.18 1.177 1.18 2.355 2.777 3.787 4.207 1.43 1.43-.674 3.2.083 4.291.758 1.095-.083 2.611 1.599 3.789 1.683 1.177.169 3.616 1.515 3.955 1.347.336 2.438 2.437 2.608 3.279.168.841 2.693 1.937 2.86.505.169-1.429 1.516-3.113 1.684-4.458.168-1.345-1.01-6.143-2.104-7.657-1.095-1.514.253-1.853-1.095-3.615-1.345-1.772-2.187-4.884-2.102-7.408.083-2.524 3.029-6.648 4.46-7.911 1.43-1.26 3.028-.588 3.365-1.935.336-1.347 2.103-3.027 3.113-3.027 1.01 0 2.104.251 2.272-.84.168-1.095 1.85-2.443 4.038-2.777 2.189-.338.926-1.519.337-2.524-.588-1.011.506-2.021.925-1.349.421.674 1.767.757 2.61.168.84-.587 2.777-2.186.925-2.27-1.853-.085-2.272-.84-1.18-1.264 1.095-.418.17-2.437-1.344-2.607-1.516-.17-1.01-.923-.084-1.854.925-.923-1.346-2.436-2.44-3.196-1.095-.757.67-1.176 1.513-1.345.843-.168.17-4.04.59-4.963.421-.925 1.85-.925 1.262 0-.59.923-1.43 2.438-.336 3.7 1.094 1.263 1.429 2.608 1.01 4.545-.422 1.936.419 1.43 1.681-1.096 1.262-2.523 1.43-4.71.59-4.963-.841-.25-.758-2.775.168-1.599.925 1.18 1.263 1.348 2.693-.17 1.429-1.513 2.944-4.117 2.018-4.709-.925-.59.422-1.18 2.104-1.093 1.683.083 5.3-1.013 5.553-1.516.821-1.642-5.806.757-5.806-.17 0-.926 4.21-1.85 6.142-1.934 1.936-.082 1.011-2.691 1.853-1.6.84 1.095 2.103.927 3.196.253 1.094-.672.252-2.608-1.009-2.943-1.262-.337.925-1.179.504-1.936-.42-.757.842-3.788 2.44-4.123 1.6-.335.842-1.347 2.189-1.347 1.346 0 1.598-1.6 2.776-2.775 1.178-1.179 2.861 1.849 4.712.167.757-.69 1.783-1.455 2.834-2.124-4.317-5.704-3.094-9.515-3.2-10.553zM16.795 79.096c-.167-1.347-3.786-.085-3.365 1.177.42 1.26 3.837 2.086 5.3 1.599 1.264-.422 1.684-1.768.759-2.61-.926-.84-2.525 1.18-2.694-.166zm53.598 9.925c.085-.925-1.262-.84-2.945 1.096-1.682 1.934-3.111 2.944-3.365 3.871-.253.925-2.189-.169-2.778 1.009-.588 1.179.417 3.79 1.6 2.948 1.178-.842 1.261 0 2.02 0 .756 0 4.206-2.357 4.963-3.538.757-1.178-1.347-1.513-1.43-2.271-.084-.757 1.767-.757 2.694-1.262.924-.506-.843-.927-.759-1.853zm-42.66 19.776c-1.85-.673-6.723 2.287-5.047 2.526 1.178.168 1.683-1.009 3.029-1.009 1.347 0 3.871-.844 2.019-1.517zm-14.303 7.572c2.02-.84 2.86-1.848 2.02-2.858-.842-1.01-3.574 3.506-2.02 2.858zm141.973-11.944c.562-1.462.674-2.358-3.59-4.043-4.264-1.683-3.813-2.804-6.732-7.966-2.916-5.159-8.189-7.403-8.189-9.309 0-1.908-5.16-1.683-5.16-.228 0 1.46-2.243 1.911-3.477 2.694-1.236.786-1.796-.448-2.919-1.905-1.121-1.459-3.814-2.918-3.814-3.818 0-.893-.672-2.802-2.578-1.904-1.91.898-2.918 0-3.48.672-.56.675-2.017-.411-2.017-.411V20.05c-.674-.072-1.276-.183-1.741-.36-2.44-.925-6.058-2.607-7.993-2.188-1.934.421-5.806.925-7.153.253-1.344-.672-3.197-1.262-5.973-.843-2.776.424-4.544-1.513-8.078-2.355-3.535-.842-8.497.253-9.674.674-1.178.419-.928-1.263-2.442-1.093-1.515.168-.337-.674-1.179-1.936-.84-1.263-5.048-.085-6.562.083-1.515.168-1.935-.757-1.85-1.514.084-.758-1.348-.504-1.937.504-.588 1.01-2.27 1.178-2.944.507-.673-.675 1.43-.926 1.515-1.684.084-.757-2.188-1.178-3.03-1.43-.84-.253-2.187.84-3.955 2.44-1.766 1.598-4.375 1.43-5.973 1.262-1.598-.168-3.618.168-3.534 1.094.084.926 2.02.842.841 2.02-1.177 1.177-1.598-1.6-2.777-.338-1.178 1.262-4.71 1.178-5.554 1.01-.84-.169-3.616 2.859-4.459 3.702-.842.843.674 1.6-1.597 4.04-2.272 2.44-8.331 1.935-9.592 1.935-1.263 0-.338 1.43-1.011 2.356-.672.926.758 1.768 4.208 2.691 3.45.925 5.806 5.468 6.225 6.563.423 1.095 4.714-.083 6.396.171 1.683.252-.17 2.607 1.262 3.28 1.43.674 3.619-.337 4.038.842.423 1.176-2.86 0-4.542 1.261-1.683 1.26-2.525 1.854-3.198.926-.674-.926-3.45-.338-4.88-.168-1.43.168-.084-1.769 0-2.61.083-.842-1.935-1.43-4.712.169-2.778 1.598-1.768 1.01-2.103 2.27-.336 1.267-1.515-.756-3.282.34-1.767 1.092-4.627 1.85-5.134 2.943-.505 1.093 3.787 1.85 5.47 2.19 1.684.336-2.019 1.428-.673 1.848 1.347.422.758 1.685 2.86 2.778 2.103 1.093 6.815 0 8.079 0 1.262 0 2.44 1.517 3.448.421 1.011-1.094 4.797-4.123 6.733-2.355 1.934 1.768-2.104 1.512-1.094 2.607 1.01 1.094 2.272 3.702.42 5.05-1.85 1.345-3.617.42-4.628.335-1.009-.083-.42 1.851-2.02 3.111-1.597 1.264-2.776-1.342-4.795-1.342-2.02 0-1.597 2.606-1.515 3.867.085 1.263-3.028-.252-3.786 2.777-.758 3.032-3.955.422-1.85 3.366 2.102 2.945 1.767 1.095 3.45 2.272 1.682 1.178-1.852 3.283-.17 3.618 1.684.338 3.535 3.368 4.713 4.46 1.177 1.095 2.691-.59 4.459-.672 1.768-.084.925-2.524 1.935-1.598 1.01.925 2.44 3.615 1.515 4.29-.925.673-.17 2.775-.337 3.786-.168 1.01 3.87.674 4.124-.506.252-1.177 3.45-1.515 5.217.422 1.767 1.936 2.355 2.27 2.355.758 0-1.517 1.514-3.199 1.598-1.938.084 1.264 1.515 1.599 4.123.42 2.61-1.177 1.43.087.084 1.769-1.857 2.324 0 5.721-1.345 6.056-1.347.339-2.44 3.79-4.629 4.041-2.186.254-5.89 4.379-6.395 5.05-.504.676-5.216-1.345-5.888.588-.674 1.935-3.523 3.377-2.777 4.125.503.505 4.375-1.43 4.543-2.441.168-1.009.674-.84 1.346-.083.673.757 2.356-.334 3.113-1.01.757-.673 2.02-.419 2.777-.338.758.085 1.095-.925 3.366-1.347 2.27-.417 1.766-1.093 2.27-2.27.507-1.178 5.891-3.703 6.901-3.956 1.01-.252.42-1.933 1.515-2.02 1.094-.084 2.776-1.43 4.207-2.61 1.43-1.176 1.766-.672 2.86-1.093 1.095-.42.253-2.606 1.346-2.777 1.095-.166 1.936-1.008 1.936-1.936 0-.925-2.776-.925-3.029-1.512-.253-.59 2.188-2.78 3.114-2.694.925.087 2.44-.925 2.522-2.271.085-1.345 1.433-1.599 2.525-2.776 1.094-1.18.841-2.188 1.935-2.272 1.095-.085 2.104-1.599 3.282-2.27 1.178-.676 0 .837 2.272.925 2.272.082 1.767 2.186.083 1.43-1.681-.759-2.438-.675-3.953.756-1.516 1.43-.337 1.852-1.516 3.45-1.177 1.597-1.262 2.607.254 2.776 1.514.167.084 1.262-1.347 1.683-1.431.421-.419 1.263 1.514 1.263 1.936 0 4.796-2.78 7.488-4.125 2.693-1.343 4.714 0 5.47-.251.757-.25-.841-1.514.085-1.934.925-.422-1.094-.676-1.683-2.274-.589-1.596.925-.588 1.262-1.849.337-1.263 1.263-.76 2.103-.17.842.59 2.02-.59 2.778 1.01.756 1.6 1.598-.42 2.944.673 1.347 1.095-.253.927-1.683 1.262-1.43.338-.673 2.273.42 1.348 1.095-.927 2.02-1.515 3.03-.587 1.009.924 1.43.503 2.272-.34.84-.84.84.085.84.757 0 .673 1.767.923 4.292 1.346 2.525.42 7.069-.169 8.246-.25 1.178-.084.758 1.765 3.367 2.269 2.606.508 3.281-2.607 4.626-1.511 1.347 1.09 0 1.51-.756 2.355-.76.839.84.924 1.85 1.344 1.01.422 3.366 1.095 4.46 2.186 1.093 1.096 1.767 2.274 4.458 3.62 2.693 1.346.086-3.367 2.189-1.852s1.347.085 3.029 1.599c1.683 1.516 1.094-.674.336-3.197-.757-2.525.758-.842 1.515.336.757 1.178.757 3.45.253 4.965-.506 1.515-3.03.252-2.778-.588.253-.843-2.524-.504-2.608.672-.083 1.178 1.767 3.452 3.115 3.705 1.345.253.335 2.357 1.177 2.608 1.155.345 1.094 2.524 1.767 2.186.673-.333.42-2.943-.337-4.119-.757-1.179-.42-2.866.589-2.527 1.01.335 0 2.105.505 2.692.504.59 1.093-.587 2.27-1.26 1.18-.677-.503-2.611-.081-3.622.42-1.01 1.766.841 2.27 2.61.505 1.766-1.262 1.685-1.262 2.609 0 .928-1.598.505-2.104 1.01-.505.506-.253 3.87.421 3.956.675.083 1.094-2.778 1.516-1.349.42 1.432 2.018-1.85 2.44-.503.419 1.347 2.44 2.862 3.197 2.525.756-.337-.337-1.768-1.515-1.852-1.179-.085-1.01-2.02.084-2.104 1.094-.082 3.028 2.778 2.945 3.787-.083 1.008-1.01.925-1.937 1.937-.924 1.01-2.186-1.685-3.28-1.6-1.095.084 0 1.765.505 2.943.504 1.18-1.347 2.777.083 3.704 1.43.926 1.011-.588 1.263-1.26.251-.675 1.347.165 2.104.757.707.545.841-1.348.841-2.105 0-.757 1.263-.339 1.936.673.672 1.008.757-1.094 1.767-.927 1.01.17.336 1.767.336 2.694 0 .925 1.766-.759 1.598.252a1.446 1.446 0 0 0-.007.426c.932-.668 1.9-1.357 2.588-1.83 1.795-1.232-1.347-2.02-.786-3.474z" fill="#FBAE17"/><path d="M355.574 249.692c-.24.5-1.49-.645-1.522-1.523-.032-.872-1.295-1.035-1.295-2.554 0-1.524.615-2.43 1.392-1.103.776 1.329.26 2.203.388 2.85.13.646 1.46 1.458 1.037 2.33" fill="#F0F0F0"/><path d="M355.574 249.692c-.24.5-1.49-.645-1.522-1.523-.032-.872-1.295-1.035-1.295-2.554 0-1.524.615-2.43 1.392-1.103.776 1.329.26 2.203.388 2.85.13.646 1.46 1.458 1.037 2.33z" stroke="#999" stroke-width=".5"/></g><g mask="url(#f)"><path d="M17 56h24v24H17z"/><path d="M36 59H22c-1.1 0-2 .9-2 2v14c0 1.1.9 2 2 2h14c1.1 0 2-.9 2-2V61c0-1.1-.9-2-2-2z" fill="#333"/><path fill="#FFF" d="M34 69H24v-2h10z"/></g><g mask="url(#f)"><path d="M17 32h24v24H17z"/><path d="M36 35H22a2 2 0 0 0-2 2v14a2 2 0 0 0 2 2h14c1.1 0 2-.9 2-2V37c0-1.1-.9-2-2-2z" fill="#333"/><path fill="#FFF" d="M34 45h-4v4h-2v-4h-4v-2h4v-4h2v4h4z"/></g></g></svg>